<?xml version="1.0" encoding="utf-8"?>
<!-- Generator: Adobe Illustrator 16.0.0, SVG Export Plug-In . SVG Version: 6.00 Build 0)  -->
<!DOCTYPE svg PUBLIC "-//W3C//DTD SVG 1.1//EN" "http://www.w3.org/Graphics/SVG/1.1/DTD/svg11.dtd">
<svg version="1.1" id="Layer_1" xmlns="http://www.w3.org/2000/svg" xmlns:xlink="http://www.w3.org/1999/xlink" x="0px" y="0px"
	 width="60px" height="60px" viewBox="0 0 60 60" enable-background="new 0 0 60 60" xml:space="preserve">
<g>
	<g>
		<circle fill="#FFFFFF" cx="30.042" cy="30.023" r="18.14"/>
		<path d="M30.042,48.41c-10.139,0-18.388-8.248-18.388-18.387c0-10.139,8.249-18.387,18.388-18.387
			c10.139,0,18.387,8.249,18.387,18.387C48.43,40.162,40.182,48.41,30.042,48.41z M30.042,12.131
			c-9.866,0-17.892,8.026-17.892,17.892s8.026,17.893,17.892,17.893s17.893-8.027,17.893-17.893S39.908,12.131,30.042,12.131z"/>
	</g>
	<path d="M30.043,0.68l-0.257,0.001l0.009,0.99c0.014,0,0.027,0,0.042,0h0c0.002,0,0.006,0,0.009,0c0.002,0,0.003,0,0.005,0
		s0.005,0,0.007,0c0.003,0,0.009,0,0.013,0c0.001,0,0.001,0,0.002,0c0.004,0,0.009,0,0.013,0c0.001,0,0.002,0,0.003,0
		c0.005,0,0.009,0,0.014,0l0,0c0.011,0,0.02,0,0.03,0c0,0,0.001,0,0.001,0c0.011,0,0.02,0,0.03,0c0,0,0,0,0.001,0
		c0.005,0,0.008,0,0.013,0c0.001,0,0.002,0,0.003,0c0.01,0,0.02,0,0.029,0c0.001,0,0.002,0,0.003,0c0.003,0,0.007,0,0.011,0
		c0.001,0,0.002,0,0.004,0c0.004,0,0.009,0,0.014,0l0,0V0.68L30.043,0.68z M28.763,0.708L28.507,0.72l0.052,0.989l0,0
		c0.004,0,0.009,0,0.014-0.001c0.001,0,0.003,0,0.005,0c0.002,0,0.004,0,0.008,0c0.003,0,0.005,0,0.008,0c0.001,0,0.002,0,0.003,0
		c0.069-0.003,0.138-0.007,0.208-0.009L28.763,0.708L28.763,0.708z M27.485,0.79L27.23,0.813l0.093,0.986
		c0.082-0.007,0.164-0.015,0.246-0.022L27.485,0.79L27.485,0.79z M26.212,0.928l-0.254,0.034l0.137,0.98
		c0.022-0.003,0.044-0.006,0.067-0.009c0.002,0,0.003,0,0.006-0.001c0.001,0,0.004,0,0.006-0.001c0.003,0,0.006,0,0.01-0.001
		c0.001,0,0.001,0,0.002,0c0.005-0.001,0.01-0.001,0.015-0.002c0,0,0,0,0,0c0.004-0.001,0.01-0.001,0.015-0.002l0,0
		c0.042-0.005,0.082-0.011,0.123-0.016L26.212,0.928L26.212,0.928z M24.946,1.122l-0.252,0.045l0.18,0.974
		c0.056-0.01,0.11-0.02,0.167-0.03c0,0,0,0,0.001,0c0.01-0.002,0.019-0.003,0.029-0.005c0,0,0.001,0,0.001,0
		c0.006-0.001,0.009-0.001,0.014-0.002c0,0,0,0,0.001,0c0.01-0.002,0.021-0.003,0.03-0.005L24.946,1.122L24.946,1.122z M23.689,1.37
		l-0.25,0.057l0.222,0.965c0.017-0.003,0.033-0.008,0.05-0.011c0.002,0,0.004-0.001,0.007-0.001c0.002,0,0.004-0.001,0.006-0.002
		c0.003-0.001,0.008-0.002,0.011-0.002c0.001,0,0.002,0,0.004-0.001c0.003,0,0.007-0.001,0.011-0.002
		c0.001,0,0.003-0.001,0.004-0.001c0.003-0.001,0.007-0.001,0.01-0.003c0.001,0,0.002,0,0.004-0.001
		c0.003,0,0.008-0.002,0.012-0.002c0.001,0,0.003-0.001,0.005-0.001c0.003,0,0.004-0.001,0.007-0.001s0.005-0.001,0.007-0.002
		c0.002,0,0.005-0.001,0.007-0.002c0.004,0,0.007-0.001,0.012-0.002c0.002,0,0.003-0.001,0.005-0.001
		c0.003,0,0.005-0.001,0.007-0.001s0.005-0.001,0.006-0.001c0.002,0,0.004-0.001,0.007-0.001c0.003-0.001,0.008-0.002,0.011-0.003
		c0.001,0,0.003,0,0.004,0c0.004-0.001,0.007-0.002,0.011-0.003c0,0,0.001,0,0.002,0c0.01-0.002,0.02-0.004,0.029-0.007L23.689,1.37
		L23.689,1.37z M22.444,1.673l-0.248,0.067l0.265,0.955c0.002-0.001,0.004-0.001,0.006-0.001c0.001,0,0.003-0.001,0.004-0.001
		c0.034-0.01,0.069-0.019,0.104-0.029h0.001c0.003-0.001,0.006-0.001,0.01-0.002c0.001,0,0.001,0,0.002-0.001
		c0.009-0.002,0.019-0.005,0.027-0.007c0.002,0,0.003-0.001,0.004-0.001c0.003,0,0.006-0.001,0.009-0.002h0
		c0.024-0.006,0.047-0.013,0.071-0.019L22.444,1.673L22.444,1.673z M21.214,2.032L20.97,2.11l0.306,0.942
		c0.012-0.004,0.022-0.007,0.034-0.011l0.001,0c0.004-0.001,0.009-0.002,0.013-0.004c0.003-0.001,0.004-0.001,0.008-0.003
		c0.002,0,0.004,0,0.005-0.001c0.002-0.001,0.006-0.002,0.009-0.003c0.001,0,0.003-0.001,0.004-0.001
		c0.003-0.001,0.009-0.003,0.012-0.003c0.001,0,0.003-0.001,0.005-0.001c0.002-0.001,0.005-0.002,0.007-0.003
		c0.002-0.001,0.004-0.001,0.007-0.002c0.001,0,0.003,0,0.004,0c0.04-0.013,0.08-0.026,0.119-0.039c0.001,0,0.002,0,0.003-0.001
		c0.001,0,0.002,0,0.003,0L21.214,2.032L21.214,2.032z M20.001,2.444L19.76,2.533l0.347,0.927c0.042-0.016,0.084-0.031,0.125-0.046
		h0c0.002-0.001,0.006-0.002,0.009-0.003c0.001,0,0.003-0.001,0.005-0.002c0.002-0.001,0.004-0.002,0.006-0.003
		c0.004-0.001,0.008-0.003,0.013-0.004c0,0,0.001,0,0.002-0.001c0.004-0.001,0.009-0.004,0.013-0.005l0,0
		c0.019-0.006,0.038-0.013,0.056-0.021c0.001,0,0.001,0,0.001,0L20.001,2.444L20.001,2.444z M18.807,2.909l-0.236,0.099l0.388,0.911
		c0.062-0.026,0.123-0.052,0.185-0.078c0,0,0,0,0.001,0c0.004-0.002,0.008-0.004,0.013-0.005c0.001,0,0.002-0.001,0.003-0.001
		c0.003-0.001,0.007-0.003,0.01-0.004c0.001,0,0.003-0.001,0.004-0.001c0.003-0.001,0.005-0.002,0.008-0.003
		c0.001,0,0.003-0.001,0.004-0.001L18.807,2.909L18.807,2.909z M17.635,3.425l-0.232,0.109l0.427,0.894
		c0.075-0.036,0.149-0.071,0.225-0.106L17.635,3.425L17.635,3.425z M16.487,3.993l-0.227,0.12l0.465,0.874
		c0.047-0.025,0.094-0.051,0.142-0.075c0.001,0,0.002-0.001,0.003-0.001c0.003-0.001,0.006-0.003,0.009-0.005
		c0.002-0.001,0.006-0.003,0.009-0.005c0.001,0,0.003-0.001,0.004-0.001c0.003-0.002,0.006-0.004,0.01-0.006
		c0,0,0.001,0,0.002-0.001c0.013-0.007,0.027-0.014,0.041-0.021L16.487,3.993L16.487,3.993z M15.364,4.61l-0.221,0.129l0.503,0.853
		c0.028-0.017,0.058-0.034,0.086-0.051c0.001-0.001,0.002-0.001,0.004-0.002c0.001-0.001,0.003-0.002,0.005-0.003
		c0.004-0.001,0.007-0.004,0.01-0.006c0,0,0,0,0.001-0.001c0.035-0.02,0.071-0.042,0.106-0.062L15.364,4.61L15.364,4.61z
		 M14.27,5.276l-0.215,0.138l0.541,0.831c0.031-0.021,0.062-0.041,0.093-0.061c0.003-0.002,0.006-0.004,0.01-0.006
		c0.001,0,0.001-0.001,0.002-0.001c0.003-0.002,0.007-0.005,0.011-0.007l0,0c0.031-0.02,0.061-0.039,0.091-0.059L14.27,5.276
		L14.27,5.276z M13.206,5.988l-0.209,0.148l0.576,0.805c0.013-0.009,0.026-0.019,0.04-0.028c0.003-0.002,0.006-0.004,0.01-0.007
		c0,0,0.001,0,0.001-0.001c0.051-0.036,0.1-0.07,0.151-0.106L13.206,5.988L13.206,5.988z M12.174,6.747l-0.203,0.156l0.611,0.78
		c0.001-0.001,0.003-0.002,0.005-0.004l0.002-0.001c0.008-0.006,0.016-0.013,0.023-0.018l0.001-0.001
		c0.003-0.002,0.005-0.004,0.008-0.006l0.001-0.001c0.004-0.004,0.01-0.007,0.014-0.011c0,0,0.001-0.001,0.003-0.002
		c0.002-0.002,0.004-0.003,0.006-0.005c0.001,0,0.002-0.001,0.002-0.001c0.005-0.004,0.01-0.007,0.015-0.011l0.001-0.001
		c0.002-0.001,0.005-0.003,0.007-0.005c0,0,0.001-0.001,0.002-0.002c0.034-0.027,0.068-0.054,0.104-0.081L12.174,6.747L12.174,6.747
		z M11.175,7.549L10.98,7.714l0.644,0.753c0,0,0,0,0.001,0c0.003-0.003,0.007-0.006,0.01-0.009c0,0,0.001-0.001,0.002-0.002
		c0.059-0.05,0.117-0.099,0.176-0.148L11.175,7.549L11.175,7.549z M10.213,8.394l-0.188,0.174l0.676,0.724
		c0.001-0.001,0.002-0.002,0.003-0.003s0.004-0.003,0.005-0.005c0.001-0.001,0.002-0.002,0.003-0.002
		c0.048-0.045,0.098-0.091,0.147-0.136c0,0,0,0,0,0c0.003-0.003,0.006-0.006,0.01-0.009c0.001-0.002,0.003-0.003,0.004-0.005
		c0.001-0.001,0.002-0.002,0.003-0.003c0.002-0.001,0.003-0.003,0.004-0.004L10.213,8.394L10.213,8.394z M9.289,9.28l-0.18,0.182
		l0.707,0.694c0.026-0.027,0.053-0.054,0.079-0.081c0.001-0.001,0.004-0.004,0.005-0.005c0.001-0.001,0.002-0.002,0.003-0.003
		c0.003-0.004,0.006-0.006,0.01-0.01l0,0c0.025-0.025,0.051-0.051,0.076-0.077L9.289,9.28L9.289,9.28z M8.403,10.205l-0.172,0.189
		l0.736,0.663c0.055-0.062,0.11-0.122,0.166-0.183L8.403,10.205L8.403,10.205z M7.559,11.167l-0.164,0.197l0.764,0.629
		c0.021-0.026,0.043-0.052,0.064-0.078c0-0.001,0.001-0.002,0.003-0.003c0.001-0.002,0.002-0.003,0.004-0.006
		c0.001-0.002,0.002-0.003,0.005-0.005c0-0.001,0.002-0.003,0.003-0.005c0.003-0.003,0.005-0.006,0.009-0.01
		c0-0.001,0.001-0.001,0.002-0.002c0.002-0.004,0.005-0.007,0.008-0.01c0,0,0,0,0,0c0.02-0.024,0.04-0.047,0.059-0.071L7.559,11.167
		L7.559,11.167z M6.757,12.166L6.602,12.37l0.79,0.596c0.01-0.013,0.021-0.027,0.031-0.041c0.001-0.001,0.002-0.003,0.004-0.004
		c0.001-0.001,0.002-0.004,0.003-0.005c0.002-0.003,0.005-0.006,0.008-0.011c0,0,0-0.001,0-0.001
		c0.003-0.003,0.005-0.007,0.008-0.011c0,0,0,0,0,0c0.006-0.008,0.012-0.016,0.018-0.024c0,0,0.001,0,0.001-0.001
		c0.006-0.008,0.012-0.015,0.018-0.022c0.001-0.001,0.001-0.002,0.002-0.003c0.001-0.003,0.004-0.006,0.006-0.009
		c0.001-0.001,0.001-0.002,0.002-0.003c0.002-0.003,0.005-0.006,0.007-0.009c0.001-0.001,0.002-0.003,0.004-0.005
		c0.001-0.001,0.003-0.004,0.004-0.006c0-0.001,0.002-0.003,0.004-0.005c0.002-0.003,0.004-0.006,0.006-0.008
		c0.002-0.002,0.003-0.005,0.005-0.007c0.001-0.001,0.002-0.002,0.003-0.004c0.002-0.002,0.004-0.004,0.005-0.006
		c0.001-0.002,0.003-0.006,0.005-0.008c0.001,0,0.001-0.001,0.003-0.002L6.757,12.166L6.757,12.166z M5.999,13.198l-0.146,0.21
		l0.815,0.562c0.016-0.023,0.032-0.046,0.048-0.069c0.001-0.001,0.002-0.004,0.003-0.005c0.001-0.001,0.002-0.002,0.003-0.004
		c0.028-0.042,0.058-0.083,0.087-0.125L5.999,13.198L5.999,13.198z M5.287,14.263L5.15,14.479l0.839,0.525
		C5.991,15.002,5.992,15,5.994,14.997c0,0,0.002-0.003,0.002-0.004c0.001-0.001,0.002-0.003,0.002-0.004
		c0.002-0.003,0.003-0.005,0.006-0.008c0-0.001,0.001-0.002,0.002-0.003c0.002-0.004,0.004-0.007,0.007-0.012c0,0,0,0,0,0
		c0.001-0.004,0.004-0.008,0.007-0.012c0,0,0.001-0.001,0.002-0.001c0.002-0.004,0.004-0.008,0.007-0.012c0,0,0,0,0.001-0.001
		c0.001-0.003,0.004-0.007,0.006-0.01c0.001-0.001,0.002-0.003,0.003-0.005c0.002-0.002,0.002-0.003,0.004-0.005
		c0.025-0.041,0.052-0.082,0.078-0.122L5.287,14.263L5.287,14.263z M4.622,15.357L4.495,15.58l0.861,0.489
		c0.01-0.018,0.021-0.037,0.031-0.055l0,0c0.002-0.003,0.005-0.007,0.007-0.011C5.395,16,5.396,15.999,5.396,15.997
		c0.001-0.002,0.002-0.003,0.003-0.005c0.026-0.046,0.053-0.093,0.08-0.139L4.622,15.357L4.622,15.357z M4.005,16.48l-0.117,0.228
		l0.881,0.45c0.011-0.02,0.021-0.041,0.032-0.061v-0.001c0.005-0.009,0.009-0.018,0.015-0.027l0.001-0.002
		c0.004-0.009,0.009-0.018,0.014-0.027v0c0.017-0.034,0.035-0.067,0.052-0.101L4.005,16.48L4.005,16.48z M3.438,17.629l-0.107,0.232
		l0.9,0.411c0,0,0-0.001,0.001-0.001c0.001-0.004,0.003-0.007,0.005-0.011c0-0.001,0-0.002,0-0.002
		c0.001-0.003,0.004-0.009,0.006-0.012c0.001-0.001,0.001-0.003,0.002-0.004c0.001-0.003,0.001-0.005,0.003-0.008
		c0.001-0.001,0.001-0.003,0.002-0.005c0.002-0.004,0.003-0.008,0.005-0.011c0.001-0.001,0.001-0.003,0.002-0.005
		c0.001-0.002,0.002-0.005,0.003-0.008c0.001-0.001,0.002-0.003,0.003-0.004c0.001-0.004,0.003-0.008,0.005-0.013
		c0,0,0-0.001,0-0.001c0.002-0.003,0.004-0.008,0.005-0.011c0-0.001,0.001-0.001,0.001-0.002c0.019-0.043,0.038-0.083,0.058-0.125
		L3.438,17.629L3.438,17.629z M2.921,18.801l-0.097,0.237l0.918,0.371c0.005-0.011,0.009-0.022,0.013-0.033l0-0.001
		c0.002-0.004,0.004-0.009,0.006-0.014c0.001-0.002,0.001-0.004,0.002-0.007c0-0.001,0.001-0.004,0.002-0.005
		c0.001-0.002,0.003-0.006,0.004-0.009c0-0.001,0-0.002,0-0.003c0.002-0.004,0.004-0.008,0.006-0.012
		c0-0.002,0.001-0.003,0.001-0.004c0.001-0.003,0.002-0.005,0.004-0.009c0-0.001,0.001-0.002,0.001-0.004
		c0.002-0.005,0.002-0.006,0.004-0.01c0.001-0.003,0.002-0.005,0.003-0.007c0.001-0.003,0.001-0.003,0.002-0.006
		s0.001-0.005,0.002-0.007c0,0,0.001-0.002,0.001-0.003c0.014-0.031,0.026-0.062,0.039-0.093L2.921,18.801L2.921,18.801z
		 M2.458,19.995l-0.086,0.241l0.934,0.331c0.023-0.066,0.047-0.133,0.071-0.2l0-0.001c0-0.001,0.001-0.004,0.002-0.006
		c0.001-0.003,0.002-0.007,0.003-0.01c0,0,0-0.001,0-0.001c0.002-0.005,0.003-0.009,0.005-0.014L2.458,19.995L2.458,19.995z
		 M2.046,21.209L1.97,21.454l0.948,0.289c0.021-0.069,0.042-0.137,0.063-0.206c0-0.001,0-0.001,0-0.001
		c0.001-0.003,0.002-0.007,0.003-0.011c0.002-0.006,0.003-0.012,0.005-0.018L2.046,21.209L2.046,21.209z M1.688,22.439l-0.064,0.248
		l0.958,0.247c0.018-0.067,0.035-0.133,0.052-0.2c0.001-0.002,0.002-0.006,0.003-0.009c0-0.001,0-0.002,0-0.003
		c0.002-0.01,0.005-0.018,0.007-0.028L1.688,22.439L1.688,22.439z M1.386,23.684l-0.054,0.25l0.969,0.204
		c0.002-0.01,0.004-0.02,0.006-0.03l0,0c0.012-0.06,0.025-0.12,0.039-0.18c0-0.001,0-0.002,0.001-0.003
		c0-0.003,0.001-0.006,0.001-0.009c0.001-0.002,0.001-0.004,0.002-0.006v0c0.001-0.004,0.002-0.009,0.003-0.013L1.386,23.684
		L1.386,23.684z M1.138,24.941l-0.043,0.252l0.977,0.162c0.005-0.033,0.011-0.066,0.016-0.099l0-0.002
		c0.001-0.002,0.001-0.005,0.002-0.009c0-0.002,0-0.003,0-0.005c0-0.004,0.001-0.008,0.002-0.011c0-0.003,0.001-0.007,0.001-0.009
		c0-0.002,0-0.003,0.001-0.005c0-0.003,0.001-0.009,0.002-0.012c0,0,0,0,0,0c0.005-0.031,0.01-0.061,0.016-0.092L1.138,24.941
		L1.138,24.941z M0.945,26.207l-0.032,0.254l0.983,0.119c0.002-0.019,0.004-0.037,0.007-0.056c0,0,0-0.001,0-0.002
		c0-0.002,0-0.006,0.001-0.008c0-0.003,0-0.004,0-0.007c0-0.001,0-0.003,0-0.005c0-0.004,0.001-0.009,0.002-0.014
		c0,0,0-0.001,0-0.001c0-0.004,0.001-0.009,0.001-0.013c0,0,0-0.001,0-0.001c0.004-0.035,0.009-0.071,0.013-0.105
		c0-0.002,0-0.004,0.001-0.006c0-0.002,0-0.003,0-0.005c0.001-0.007,0.002-0.014,0.003-0.021L0.945,26.207L0.945,26.207z
		 M0.808,27.48l-0.021,0.255l0.987,0.076c0.006-0.082,0.013-0.165,0.02-0.247L0.808,27.48L0.808,27.48z M0.726,28.758l-0.01,0.256
		l0.99,0.034c0.001-0.033,0.002-0.065,0.003-0.098c0-0.001,0-0.001,0-0.002c0-0.004,0-0.009,0-0.013c0-0.004,0-0.007,0-0.01
		c0-0.001,0-0.002,0-0.004c0.002-0.041,0.003-0.081,0.005-0.121L0.726,28.758L0.726,28.758z M1.689,30.038l-0.99,0L0.7,30.295
		l0.99-0.009c0-0.013,0-0.025,0-0.038c0-0.003,0-0.005,0-0.007c0-0.001,0-0.002,0-0.003c0-0.045-0.001-0.092-0.001-0.138v0
		c0-0.005,0-0.007,0-0.012c0-0.002,0-0.004,0-0.007c0-0.001,0-0.001,0-0.002C1.689,30.065,1.689,30.051,1.689,30.038L1.689,30.038z
		 M1.716,31.275l-0.989,0.043l0.012,0.256l0.989-0.052c-0.002-0.041-0.004-0.081-0.007-0.122c0-0.001,0-0.003,0-0.005
		c0-0.002,0-0.005,0-0.008c0-0.002,0-0.005,0-0.007v-0.002C1.72,31.345,1.718,31.31,1.716,31.275L1.716,31.275z M1.797,32.511
		l-0.986,0.086l0.023,0.255l0.985-0.095c0,0,0-0.001,0-0.003c0-0.003-0.001-0.008-0.001-0.011c0-0.002,0-0.004,0-0.005
		c0-0.004,0-0.008,0-0.01c0-0.002,0-0.003,0-0.004c0-0.005-0.001-0.01-0.001-0.014l0,0c0-0.005-0.001-0.011-0.001-0.016v-0.001
		c0-0.005-0.001-0.009-0.001-0.014l0,0C1.811,32.67,1.81,32.66,1.809,32.649l0,0c0-0.005-0.001-0.011-0.001-0.016c0,0,0,0,0-0.001
		c0-0.004-0.001-0.009-0.001-0.014c0-0.001,0-0.002,0-0.002c0-0.004,0-0.008-0.001-0.012c0-0.002,0-0.003,0-0.006
		c0-0.002,0-0.004,0-0.007C1.801,32.565,1.799,32.538,1.797,32.511L1.797,32.511z M1.931,33.741l-0.982,0.128l0.035,0.254
		l0.98-0.137C1.953,33.904,1.941,33.823,1.931,33.741L1.931,33.741z M2.118,34.964l-0.976,0.171l0.046,0.253l0.974-0.18
		c-0.003-0.021-0.007-0.039-0.011-0.059c0-0.002-0.001-0.004-0.001-0.006c0-0.002-0.001-0.005-0.001-0.007
		c-0.009-0.045-0.017-0.09-0.025-0.136c0-0.001,0-0.003,0-0.004c0-0.002-0.001-0.004-0.001-0.006c0-0.003-0.001-0.008-0.001-0.012
		c0,0,0,0,0-0.001C2.12,34.974,2.119,34.97,2.118,34.964L2.118,34.964z M2.359,36.178l-0.967,0.214l0.057,0.251l0.965-0.223
		C2.395,36.34,2.377,36.259,2.359,36.178L2.359,36.178z M2.653,37.38l-0.957,0.257l0.067,0.247l0.954-0.266
		c-0.012-0.046-0.025-0.092-0.038-0.139l0,0c-0.001-0.006-0.002-0.011-0.004-0.017c0-0.002-0.001-0.004-0.001-0.006
		s-0.001-0.004-0.001-0.006c-0.001-0.001-0.002-0.006-0.003-0.009c0-0.001,0-0.003,0-0.004c-0.001-0.004-0.002-0.008-0.004-0.014
		l0,0c-0.001-0.005-0.003-0.01-0.004-0.014c0-0.001,0-0.001,0-0.001C2.658,37.399,2.656,37.39,2.653,37.38L2.653,37.38z M3,38.568
		l-0.944,0.298l0.078,0.244l0.942-0.307c0-0.001-0.001-0.002-0.001-0.003s-0.001-0.005-0.002-0.008
		C3.047,38.72,3.023,38.644,3,38.568L3,38.568z M3.398,39.74l-0.93,0.339l0.089,0.24l0.927-0.347
		C3.455,39.896,3.426,39.817,3.398,39.74L3.398,39.74z M3.848,40.893l-0.915,0.38l0.1,0.237l0.911-0.39
		c-0.001-0.003-0.002-0.005-0.003-0.008c0,0-0.001-0.003-0.002-0.003c0-0.002-0.001-0.004-0.002-0.006
		c-0.002-0.003-0.003-0.005-0.004-0.008c0-0.002,0-0.003-0.001-0.005c-0.002-0.004-0.004-0.007-0.006-0.013l0,0
		c-0.002-0.005-0.003-0.008-0.005-0.013c0,0,0-0.002-0.001-0.002c-0.004-0.01-0.007-0.018-0.011-0.026c0-0.001,0-0.001-0.001-0.002
		c-0.002-0.004-0.004-0.009-0.005-0.014c0,0,0-0.001,0-0.001c-0.002-0.004-0.003-0.008-0.006-0.013c0-0.002,0-0.002-0.001-0.003
		c-0.001-0.003-0.002-0.007-0.004-0.01c0-0.001-0.001-0.002-0.001-0.004c-0.002-0.003-0.004-0.008-0.005-0.012
		c0-0.001,0-0.002-0.001-0.003c-0.001-0.003-0.003-0.006-0.004-0.01c-0.001-0.002-0.001-0.004-0.002-0.005
		c-0.001-0.004-0.001-0.005-0.003-0.008c-0.001-0.002-0.002-0.005-0.003-0.008c-0.001-0.003-0.002-0.005-0.003-0.008
		c-0.001-0.002-0.002-0.004-0.002-0.006c-0.001-0.002-0.002-0.005-0.003-0.008C3.86,40.924,3.86,40.922,3.859,40.92
		c-0.002-0.003-0.004-0.007-0.005-0.012c-0.001-0.001-0.001-0.002-0.002-0.004c-0.001-0.004-0.001-0.005-0.003-0.009
		C3.848,40.895,3.848,40.894,3.848,40.893L3.848,40.893z M4.347,42.024l-0.897,0.42l0.11,0.232l0.894-0.428
		c-0.001-0.002-0.001-0.003-0.002-0.004c-0.002-0.003-0.003-0.006-0.004-0.01c0-0.001,0-0.001,0-0.001
		C4.413,42.165,4.38,42.095,4.347,42.024L4.347,42.024z M4.896,43.134l-0.877,0.46l0.12,0.227l0.873-0.466
		c-0.02-0.039-0.041-0.077-0.061-0.115c0-0.001-0.002-0.005-0.003-0.006c-0.001-0.002-0.002-0.004-0.002-0.006
		c-0.005-0.008-0.008-0.016-0.013-0.023c0-0.001,0-0.001,0-0.001C4.92,43.179,4.909,43.157,4.896,43.134L4.896,43.134z M5.493,44.22
		l-0.856,0.495l0.129,0.222l0.852-0.505c-0.007-0.013-0.015-0.026-0.023-0.039h0c-0.002-0.005-0.004-0.008-0.006-0.011
		c0-0.001-0.001-0.003-0.002-0.004c-0.002-0.003-0.004-0.009-0.006-0.011s-0.002-0.004-0.004-0.006
		c-0.001-0.002-0.002-0.003-0.003-0.006c0-0.003-0.002-0.005-0.003-0.006c-0.001-0.002-0.002-0.004-0.003-0.006
		c-0.001-0.003-0.003-0.006-0.006-0.009c-0.001-0.003-0.002-0.004-0.003-0.007c0-0.002-0.001-0.004-0.003-0.006
		c-0.001-0.002-0.003-0.004-0.004-0.006c-0.001-0.003-0.002-0.005-0.003-0.008c-0.002-0.003-0.003-0.005-0.005-0.007
		c0-0.002-0.001-0.004-0.002-0.005c-0.001-0.004-0.003-0.007-0.004-0.009c-0.001-0.002-0.001-0.002-0.002-0.003
		c-0.002-0.004-0.004-0.008-0.006-0.012c-0.001-0.002-0.002-0.004-0.004-0.006c0-0.002-0.001-0.002-0.001-0.003
		C5.511,44.249,5.502,44.233,5.493,44.22L5.493,44.22z M6.137,45.275l-0.833,0.533l0.139,0.215l0.83-0.54
		C6.227,45.414,6.182,45.346,6.137,45.275L6.137,45.275z M6.827,46.304l-0.811,0.568l0.148,0.209l0.805-0.576h0
		c-0.002-0.003-0.005-0.007-0.007-0.01c-0.001-0.002-0.002-0.004-0.003-0.005c-0.002-0.003-0.002-0.004-0.004-0.006
		c-0.002-0.003-0.004-0.006-0.006-0.01c-0.001,0-0.003-0.002-0.004-0.004c-0.001-0.003-0.003-0.005-0.004-0.007
		c-0.001-0.002-0.002-0.003-0.003-0.005c-0.002-0.001-0.003-0.003-0.004-0.005c-0.002-0.005-0.004-0.007-0.007-0.011
		c0-0.001-0.001-0.002-0.002-0.003c-0.002-0.003-0.004-0.006-0.007-0.009c0-0.002,0-0.003-0.001-0.003
		c-0.023-0.033-0.048-0.066-0.071-0.1l0-0.001c-0.001-0.003-0.004-0.006-0.007-0.009C6.834,46.312,6.83,46.309,6.827,46.304
		L6.827,46.304z M7.56,47.301l-0.784,0.604l0.157,0.202l0.78-0.61c-0.004-0.006-0.009-0.011-0.013-0.017
		c-0.002-0.002-0.003-0.003-0.004-0.006c-0.001-0.001-0.002-0.002-0.003-0.002c-0.035-0.047-0.068-0.09-0.104-0.134h0
		c-0.002-0.005-0.005-0.01-0.009-0.012c-0.001-0.001-0.002-0.003-0.002-0.004c-0.001-0.002-0.003-0.004-0.004-0.006
		c-0.002-0.003-0.004-0.006-0.005-0.007l0,0C7.564,47.307,7.562,47.304,7.56,47.301L7.56,47.301z M8.336,48.265l-0.758,0.638
		l0.166,0.194l0.752-0.644c-0.023-0.027-0.045-0.053-0.068-0.081c-0.001,0-0.002-0.002-0.003-0.003
		c-0.001-0.001-0.002-0.003-0.004-0.004C8.393,48.331,8.364,48.298,8.336,48.265L8.336,48.265z M9.153,49.193l-0.729,0.671
		l0.174,0.188l0.724-0.676c-0.011-0.013-0.023-0.025-0.035-0.038c0,0-0.001-0.001-0.002-0.001c-0.003-0.004-0.005-0.007-0.008-0.01
		s-0.004-0.004-0.006-0.006c-0.001-0.001-0.002-0.002-0.003-0.004c-0.002-0.004-0.005-0.006-0.008-0.01c0,0,0,0-0.001-0.001
		c-0.021-0.021-0.041-0.043-0.062-0.065c0-0.001-0.001-0.001-0.001-0.003c-0.002-0.003-0.005-0.006-0.008-0.009
		c-0.001-0.002-0.003-0.003-0.004-0.005c-0.001-0.001-0.003-0.003-0.005-0.004C9.168,49.211,9.161,49.203,9.153,49.193L9.153,49.193
		z M10.01,50.088l-0.7,0.699l0.182,0.181l0.694-0.706c-0.054-0.054-0.108-0.106-0.161-0.16h-0.001
		c-0.002-0.003-0.004-0.005-0.006-0.007c-0.001-0.001-0.002-0.002-0.004-0.003C10.012,50.091,10.011,50.089,10.01,50.088
		L10.01,50.088z M10.904,50.942l-0.668,0.73l0.189,0.173l0.662-0.737c-0.03-0.027-0.062-0.055-0.092-0.083l0,0
		c-0.004-0.003-0.007-0.006-0.011-0.009c0-0.001-0.001-0.002-0.002-0.003c-0.003-0.002-0.005-0.004-0.008-0.007
		c-0.001-0.001-0.002-0.002-0.003-0.003c-0.002-0.002-0.007-0.007-0.01-0.009c0-0.001-0.001-0.001-0.002-0.001
		c-0.003-0.003-0.007-0.007-0.009-0.01c0,0-0.001-0.001-0.002-0.001C10.934,50.971,10.919,50.957,10.904,50.942L10.904,50.942z
		 M11.835,51.758l-0.636,0.759l0.197,0.164l0.63-0.765c-0.005-0.005-0.01-0.009-0.017-0.014c-0.001-0.001-0.001-0.001-0.002-0.002
		c-0.007-0.005-0.014-0.011-0.02-0.017c-0.002-0.001-0.004-0.004-0.006-0.005c-0.001,0-0.003-0.001-0.004-0.003
		c-0.003-0.004-0.007-0.006-0.01-0.009c0-0.001,0-0.001-0.001-0.001c-0.003-0.003-0.007-0.005-0.011-0.008c0,0,0-0.001-0.001-0.001
		c-0.023-0.021-0.046-0.039-0.07-0.059c-0.001,0-0.002-0.001-0.003-0.003c-0.002-0.002-0.004-0.004-0.006-0.006
		C11.861,51.78,11.848,51.769,11.835,51.758L11.835,51.758z M12.8,52.533l-0.603,0.785l0.204,0.155l0.596-0.79
		c-0.045-0.035-0.09-0.069-0.136-0.104l0,0c-0.008-0.006-0.015-0.011-0.023-0.018c-0.001-0.001-0.003-0.002-0.004-0.003
		c-0.001-0.001-0.004-0.003-0.006-0.004C12.819,52.547,12.81,52.539,12.8,52.533L12.8,52.533z M13.798,53.264l-0.568,0.812
		l0.21,0.146l0.561-0.816l0,0c-0.002-0.002-0.006-0.004-0.009-0.006c-0.028-0.02-0.056-0.039-0.083-0.058l-0.001-0.001
		c-0.003-0.002-0.007-0.006-0.011-0.009c-0.003-0.002-0.006-0.004-0.009-0.006c0,0-0.001,0-0.001,0
		C13.857,53.306,13.828,53.285,13.798,53.264L13.798,53.264z M14.828,53.953l-0.532,0.834l0.216,0.137l0.525-0.841
		c-0.001,0-0.002-0.001-0.004-0.001c-0.002-0.001-0.003-0.002-0.005-0.004c-0.002-0.001-0.004-0.002-0.005-0.003
		c-0.004-0.002-0.006-0.004-0.01-0.007c-0.001-0.002-0.003-0.003-0.004-0.003c-0.003-0.002-0.005-0.002-0.008-0.004
		c-0.001-0.001-0.002-0.002-0.003-0.003c-0.003-0.002-0.008-0.005-0.011-0.007c-0.001-0.001-0.002-0.001-0.003-0.001
		c-0.003-0.002-0.006-0.005-0.008-0.007c-0.001-0.001-0.002-0.001-0.004-0.002c-0.004-0.003-0.007-0.005-0.011-0.007
		c-0.001-0.001-0.002-0.001-0.003-0.002c-0.002-0.001-0.006-0.003-0.008-0.006c-0.001-0.001-0.003-0.002-0.004-0.002
		c-0.002-0.002-0.007-0.005-0.009-0.007c-0.001-0.001-0.002-0.001-0.002-0.001c-0.004-0.002-0.008-0.005-0.011-0.006
		c-0.001-0.001-0.002-0.002-0.003-0.002C14.887,53.989,14.857,53.97,14.828,53.953L14.828,53.953z M15.885,54.595l-0.495,0.855
		l0.222,0.128l0.488-0.861c-0.016-0.009-0.032-0.019-0.048-0.026c0-0.001-0.001-0.001-0.002-0.002
		c-0.002-0.001-0.005-0.003-0.007-0.004s-0.003-0.003-0.006-0.004c-0.001-0.002-0.004-0.003-0.006-0.004
		c-0.003-0.001-0.006-0.003-0.01-0.005c-0.001-0.001-0.002-0.001-0.004-0.002c-0.003-0.002-0.006-0.004-0.008-0.005
		c-0.001-0.001-0.002-0.003-0.004-0.003c-0.003-0.001-0.008-0.004-0.011-0.006c-0.001-0.001-0.003-0.001-0.004-0.002
		c-0.002-0.002-0.006-0.003-0.009-0.005c-0.001-0.001-0.002-0.002-0.003-0.002c-0.004-0.002-0.008-0.005-0.012-0.007
		c-0.001-0.001-0.001-0.001-0.002-0.001c-0.003-0.003-0.006-0.004-0.01-0.007c-0.001,0-0.002-0.001-0.002-0.001
		C15.93,54.619,15.907,54.607,15.885,54.595L15.885,54.595z M16.971,55.189l-0.458,0.879l0.228,0.117l0.45-0.883
		c-0.023-0.012-0.046-0.023-0.068-0.034c0-0.001-0.001-0.001-0.002-0.002c-0.003-0.001-0.006-0.003-0.01-0.005
		c-0.001-0.001-0.002-0.001-0.003-0.003c-0.003-0.001-0.008-0.003-0.011-0.005c-0.002-0.001-0.003-0.001-0.006-0.002
		c-0.001-0.001-0.005-0.003-0.006-0.004c-0.002-0.001-0.003-0.002-0.005-0.003c-0.003-0.002-0.007-0.004-0.011-0.006
		c-0.001,0-0.002-0.001-0.004-0.002c-0.003-0.001-0.006-0.003-0.008-0.004c-0.001-0.001-0.003-0.002-0.005-0.002
		C17.024,55.217,16.998,55.204,16.971,55.189L16.971,55.189z M18.081,55.736l-0.418,0.897l0.232,0.107l0.41-0.901
		C18.23,55.806,18.155,55.771,18.081,55.736L18.081,55.736z M19.213,56.234l-0.378,0.916l0.237,0.097l0.371-0.919
		C19.366,56.297,19.29,56.267,19.213,56.234L19.213,56.234z M20.367,56.682l-0.338,0.932l0.242,0.086l0.33-0.933
		c-0.071-0.025-0.142-0.052-0.213-0.077c0,0-0.001-0.001-0.002-0.001c-0.002,0-0.005-0.001-0.007-0.002
		c-0.002-0.001-0.004-0.001-0.007-0.002C20.37,56.684,20.369,56.684,20.367,56.682L20.367,56.682z M21.54,57.078l-0.297,0.944
		l0.246,0.077l0.288-0.947c-0.014-0.004-0.028-0.01-0.042-0.014c-0.002,0-0.004-0.001-0.007-0.001
		c-0.002-0.001-0.001-0.001-0.003-0.001C21.663,57.117,21.601,57.098,21.54,57.078L21.54,57.078z M22.729,57.424l-0.255,0.956
		l0.248,0.065l0.247-0.959C22.888,57.466,22.808,57.444,22.729,57.424L22.729,57.424z M23.931,57.716l-0.213,0.967l0.251,0.054
		l0.204-0.969c-0.034-0.006-0.066-0.015-0.1-0.021c-0.002,0-0.003-0.001-0.004-0.001c-0.002,0-0.004-0.001-0.006-0.001
		c-0.003-0.001-0.005-0.002-0.009-0.002c-0.001-0.001-0.002-0.001-0.003-0.001C24.011,57.733,23.972,57.725,23.931,57.716
		L23.931,57.716z M25.146,57.955l-0.17,0.975l0.252,0.043l0.161-0.977c-0.023-0.004-0.046-0.008-0.069-0.012
		c-0.001,0-0.001,0-0.002,0c-0.003-0.001-0.005-0.001-0.008-0.002c-0.003,0-0.005-0.001-0.009-0.001
		c-0.001-0.001-0.002-0.001-0.003-0.001c-0.004-0.001-0.009-0.002-0.014-0.002c0,0-0.001-0.001-0.002-0.001
		c-0.004-0.001-0.009-0.001-0.013-0.002c0,0-0.001,0-0.002,0c-0.01-0.001-0.019-0.003-0.029-0.005c0,0-0.001-0.001-0.001-0.001
		c-0.005-0.001-0.008-0.001-0.014-0.002c0,0,0,0,0,0c-0.004-0.001-0.008-0.002-0.014-0.003c-0.001,0-0.003,0-0.004,0
		c-0.003-0.001-0.006-0.002-0.009-0.002c-0.002,0-0.004-0.001-0.006-0.001c-0.001,0-0.004-0.001-0.006-0.001
		c-0.005-0.001-0.009-0.002-0.015-0.002c-0.001,0-0.001,0-0.002,0c-0.003-0.001-0.007-0.001-0.01-0.002h0
		C25.151,57.956,25.148,57.956,25.146,57.955L25.146,57.955z M26.369,58.14l-0.127,0.982l0.254,0.031l0.119-0.982
		c-0.01-0.001-0.02-0.003-0.031-0.003c0,0-0.001,0-0.001,0c-0.003-0.001-0.007-0.001-0.011-0.002c-0.002,0-0.004,0-0.005,0
		c-0.002,0-0.004-0.001-0.006-0.001C26.497,58.156,26.433,58.149,26.369,58.14L26.369,58.14z M27.6,58.272l-0.085,0.986l0.256,0.02
		l0.076-0.986c-0.024-0.002-0.048-0.004-0.073-0.006c0,0-0.001,0-0.002,0c-0.001,0-0.004,0-0.006,0
		c-0.003-0.001-0.005-0.001-0.009-0.001c-0.001,0-0.002,0-0.003,0C27.702,58.281,27.649,58.276,27.6,58.272L27.6,58.272z
		 M28.834,58.351l-0.042,0.99l0.257,0.009l0.032-0.989c-0.03-0.001-0.062-0.002-0.092-0.003c-0.001,0-0.001,0-0.002,0
		c-0.003,0-0.01,0-0.013,0c-0.001,0-0.001,0-0.002,0c-0.009-0.002-0.02-0.002-0.029-0.003c-0.001,0-0.001,0-0.002,0
		c-0.004,0-0.009,0-0.013,0c0,0-0.001,0-0.001,0c-0.005-0.001-0.01-0.001-0.014-0.001c-0.001,0-0.002,0-0.004,0
		c-0.003,0-0.005,0-0.01,0c-0.002-0.001-0.004-0.001-0.007-0.001c-0.002,0-0.002,0-0.004,0
		C28.87,58.352,28.852,58.352,28.834,58.351L28.834,58.351z M30.32,58.375c-0.082,0-0.165,0.002-0.248,0.002l0.001,0.989
		l0.256-0.001L30.32,58.375L30.32,58.375z M31.558,58.336c-0.003,0-0.005,0-0.008,0c-0.001,0-0.003,0-0.005,0.002
		c-0.003,0-0.004,0-0.006,0c-0.004,0-0.009,0-0.013,0.001l0,0c-0.073,0.003-0.144,0.006-0.217,0.009l0.044,0.99l0.255-0.012
		L31.558,58.336L31.558,58.336z M32.791,58.245c-0.03,0.003-0.061,0.005-0.091,0.008c-0.001,0-0.001,0-0.001,0
		c-0.006,0.001-0.011,0.001-0.015,0.001c-0.002,0.001-0.004,0.001-0.005,0.001c-0.004,0-0.006,0-0.008,0.001
		c-0.004,0-0.006,0-0.008,0c-0.002,0.001-0.002,0.001-0.004,0.001c-0.038,0.004-0.076,0.008-0.115,0.01l0.086,0.987l0.255-0.024
		L32.791,58.245L32.791,58.245z M34.021,58.1c-0.029,0.004-0.062,0.009-0.091,0.013c-0.003,0-0.003,0-0.004,0
		c-0.003,0.001-0.006,0.001-0.009,0.002c-0.003,0-0.005,0-0.007,0.001c-0.001,0-0.001,0-0.003,0
		c-0.045,0.005-0.088,0.012-0.132,0.018l0.129,0.981l0.253-0.034L34.021,58.1L34.021,58.1z M35.242,57.9
		c-0.026,0.005-0.051,0.01-0.076,0.015c-0.001,0-0.001,0-0.001,0c-0.003,0-0.009,0.001-0.014,0.002c-0.001,0-0.001,0-0.002,0.001
		c-0.003,0-0.008,0.001-0.013,0.002c-0.003,0-0.004,0.001-0.006,0.001c-0.002,0.001-0.003,0.001-0.005,0.001
		c-0.042,0.007-0.086,0.016-0.128,0.022l0.172,0.976l0.253-0.046L35.242,57.9L35.242,57.9z M36.453,57.648
		c-0.08,0.02-0.161,0.037-0.242,0.055l0.215,0.967l0.251-0.057L36.453,57.648L36.453,57.648z M37.652,57.344
		c-0.007,0.002-0.015,0.004-0.022,0.005c-0.001,0.001-0.003,0.001-0.004,0.002c-0.002,0-0.004,0.001-0.006,0.001
		c-0.005,0.001-0.008,0.002-0.011,0.003c-0.001,0.001-0.001,0.001-0.001,0.001c-0.034,0.009-0.068,0.019-0.104,0.028
		c-0.001,0-0.003,0-0.004,0.001c-0.003,0.001-0.004,0.001-0.006,0.002c-0.027,0.007-0.055,0.015-0.08,0.021l0.256,0.956l0.247-0.068
		L37.652,57.344L37.652,57.344z M38.838,56.985c-0.073,0.025-0.146,0.048-0.221,0.071c-0.002,0.001-0.004,0.001-0.006,0.001
		c0,0-0.003,0.001-0.004,0.001c-0.001,0.001-0.003,0.002-0.005,0.002l0.298,0.945l0.244-0.079L38.838,56.985L38.838,56.985z
		 M40.007,56.576c-0.04,0.015-0.08,0.029-0.117,0.043c0,0,0,0-0.001,0c-0.004,0.002-0.008,0.004-0.011,0.004
		c-0.001,0.001-0.002,0.001-0.003,0.001c-0.006,0.003-0.009,0.004-0.013,0.006c-0.002,0.001-0.004,0.002-0.007,0.002
		c-0.002,0.001-0.004,0.001-0.005,0.002c-0.025,0.009-0.052,0.02-0.077,0.027l0.34,0.931l0.241-0.089L40.007,56.576L40.007,56.576z
		 M41.154,56.116c-0.035,0.015-0.069,0.029-0.104,0.043c-0.001,0.001-0.003,0.001-0.004,0.002c-0.003,0.001-0.006,0.003-0.009,0.004
		c-0.003,0.002-0.006,0.003-0.01,0.005c-0.002,0.001-0.004,0.001-0.005,0.002c-0.004,0.001-0.007,0.002-0.011,0.004h-0.001
		c-0.028,0.013-0.057,0.024-0.086,0.036l0.381,0.914l0.235-0.101L41.154,56.116L41.154,56.116z M42.282,55.606
		c-0.002,0-0.003,0.001-0.004,0.002c-0.002,0.001-0.004,0.001-0.005,0.002c-0.004,0.001-0.007,0.003-0.011,0.004
		c-0.002,0.001-0.004,0.003-0.007,0.003c-0.002,0.001-0.004,0.002-0.006,0.003c-0.002,0.002-0.005,0.003-0.007,0.004
		c-0.001,0.002-0.002,0.002-0.004,0.003c-0.004,0.001-0.01,0.003-0.013,0.005c0,0-0.001,0.001-0.002,0.001
		c-0.003,0.002-0.009,0.004-0.012,0.006c-0.001,0-0.001,0-0.002,0.001c-0.032,0.015-0.064,0.03-0.096,0.046
		c-0.001,0-0.001,0-0.001,0.001c-0.005,0.002-0.009,0.003-0.014,0.004c-0.003,0.002-0.004,0.003-0.007,0.004
		c-0.001,0.001-0.001,0.001-0.002,0.001c-0.012,0.006-0.022,0.012-0.034,0.016l0.421,0.897l0.23-0.11L42.282,55.606L42.282,55.606z
		 M43.386,55.046c-0.044,0.024-0.089,0.049-0.134,0.071c-0.002,0.001-0.004,0.002-0.006,0.003c-0.001,0.001-0.002,0.001-0.003,0.002
		c-0.024,0.013-0.051,0.026-0.076,0.039l0.459,0.878l0.226-0.119L43.386,55.046L43.386,55.046z M44.464,54.439
		c-0.009,0.005-0.018,0.01-0.025,0.016c-0.001,0-0.001,0-0.001,0c-0.004,0.002-0.009,0.005-0.013,0.008c0,0,0,0-0.001,0
		c-0.003,0.003-0.008,0.005-0.011,0.006c-0.001,0.001-0.003,0.003-0.005,0.004c-0.003,0.002-0.004,0.002-0.007,0.004
		c-0.002,0.001-0.003,0.002-0.005,0.003c-0.003,0.002-0.008,0.004-0.011,0.005c-0.002,0.002-0.004,0.003-0.005,0.004
		c-0.002,0.001-0.004,0.003-0.005,0.004c-0.003,0.001-0.006,0.003-0.008,0.004c-0.001,0.001-0.001,0.001-0.002,0.001
		c-0.004,0.003-0.01,0.005-0.016,0.008c0,0.001-0.001,0.002-0.002,0.002c-0.002,0.002-0.005,0.004-0.007,0.006
		c-0.001,0-0.004,0.001-0.004,0.002c-0.005,0.002-0.008,0.004-0.012,0.006c-0.003,0.001-0.003,0.002-0.006,0.003
		c-0.002,0.001-0.003,0.002-0.005,0.004c-0.003,0.002-0.006,0.004-0.009,0.005c-0.001,0.001-0.002,0.001-0.003,0.001
		c-0.003,0.003-0.007,0.005-0.012,0.007c-0.001,0.001-0.002,0.001-0.003,0.002c-0.012,0.008-0.024,0.015-0.038,0.022l0.497,0.856
		l0.222-0.13L44.464,54.439L44.464,54.439z M45.516,53.786c-0.019,0.011-0.038,0.023-0.056,0.037c-0.001,0-0.001,0-0.002,0.001
		c-0.004,0.001-0.008,0.004-0.013,0.006c-0.002,0.002-0.003,0.003-0.005,0.005s-0.003,0.003-0.005,0.004
		c-0.003,0.002-0.008,0.003-0.01,0.005l-0.001,0.001c-0.005,0.003-0.009,0.005-0.013,0.008v0.001
		c-0.035,0.022-0.069,0.044-0.104,0.067l0.534,0.833l0.214-0.14L45.516,53.786L45.516,53.786z M46.537,53.087
		c-0.038,0.027-0.076,0.054-0.112,0.08c-0.001,0.001-0.001,0.001-0.001,0.001c-0.008,0.006-0.017,0.012-0.024,0.018
		c-0.001,0-0.001,0-0.002,0.001c-0.008,0.006-0.016,0.011-0.023,0.017c0,0.001,0,0.001-0.002,0.001
		c-0.012,0.009-0.025,0.018-0.036,0.025l0.569,0.811l0.209-0.148L46.537,53.087L46.537,53.087z M47.527,52.345
		c-0.026,0.021-0.053,0.041-0.079,0.062c-0.001,0.001-0.002,0.002-0.003,0.002c-0.002,0.001-0.005,0.003-0.007,0.006
		c0,0-0.001,0.001-0.002,0.002c-0.004,0.003-0.009,0.006-0.014,0.01c0,0-0.001,0.001-0.002,0.001
		c-0.002,0.002-0.004,0.004-0.007,0.007c0,0-0.002,0.002-0.004,0.002c-0.007,0.006-0.015,0.011-0.022,0.019l0,0
		c-0.019,0.014-0.037,0.028-0.057,0.042l0.605,0.785l0.201-0.158L47.527,52.345L47.527,52.345z M48.483,51.56L48.483,51.56
		c-0.003,0.003-0.006,0.006-0.01,0.01c-0.001,0.001-0.002,0.001-0.003,0.002c-0.003,0.002-0.006,0.005-0.009,0.007
		c-0.001,0.001-0.002,0.002-0.003,0.003c-0.002,0.002-0.006,0.006-0.008,0.008c-0.002,0.001-0.004,0.002-0.005,0.003
		c-0.002,0.002-0.004,0.003-0.006,0.005s-0.005,0.004-0.006,0.006c-0.002,0.003-0.006,0.004-0.008,0.006
		c-0.002,0.001-0.003,0.003-0.005,0.005c-0.002,0.001-0.003,0.002-0.004,0.004c-0.002,0.001-0.004,0.003-0.007,0.004
		c-0.003,0.002-0.006,0.006-0.008,0.008c-0.001,0.001-0.003,0.003-0.005,0.005c-0.001,0.001-0.003,0.003-0.005,0.004
		c-0.003,0-0.005,0.002-0.006,0.003c-0.002,0.004-0.006,0.007-0.008,0.009c-0.002,0.001-0.003,0.002-0.004,0.003
		c-0.004,0.002-0.005,0.004-0.008,0.006c-0.001,0.001-0.002,0.002-0.003,0.003c-0.023,0.02-0.046,0.039-0.07,0.058l0.639,0.759
		l0.194-0.166L48.483,51.56L48.483,51.56z M49.405,50.734c-0.022,0.021-0.047,0.045-0.071,0.066c0,0.001-0.002,0.002-0.003,0.003
		c-0.002,0.002-0.004,0.003-0.006,0.005c-0.003,0.003-0.005,0.006-0.009,0.01c0,0-0.002,0-0.002,0.001
		c-0.029,0.028-0.06,0.056-0.09,0.083l0.671,0.729l0.187-0.174L49.405,50.734L49.405,50.734z M50.291,49.868
		c-0.001,0.001-0.001,0.002-0.002,0.002c-0.002,0.002-0.004,0.006-0.006,0.008c-0.001,0.002-0.003,0.003-0.004,0.005
		c-0.001,0.001-0.004,0.002-0.004,0.002c-0.053,0.055-0.104,0.108-0.158,0.16l0.701,0.7l0.18-0.184L50.291,49.868L50.291,49.868z
		 M51.138,48.967c-0.003,0.004-0.006,0.007-0.009,0.012c-0.001,0-0.002,0.001-0.002,0.002c-0.004,0.002-0.006,0.004-0.007,0.007
		c-0.001,0.001-0.003,0.003-0.004,0.005c-0.001,0.001-0.004,0.004-0.005,0.005c-0.003,0.003-0.005,0.006-0.009,0.01
		c-0.001,0-0.001,0.002-0.002,0.002c-0.043,0.047-0.085,0.094-0.128,0.142l0.73,0.669l0.173-0.19L51.138,48.967L51.138,48.967z
		 M51.945,48.029c-0.035,0.041-0.068,0.083-0.103,0.124c-0.002,0.002-0.002,0.002-0.004,0.004c-0.001,0.002-0.002,0.003-0.005,0.006
		c-0.002,0.002-0.004,0.004-0.006,0.007c0,0.001-0.001,0.001-0.001,0.002c-0.015,0.016-0.026,0.032-0.04,0.047l0.759,0.637
		l0.164-0.197L51.945,48.029L51.945,48.029z M52.711,47.056c-0.019,0.025-0.037,0.05-0.057,0.075l0,0
		c-0.003,0.003-0.005,0.006-0.008,0.011c0,0.002-0.001,0.002-0.001,0.003c-0.004,0.003-0.006,0.005-0.008,0.008
		c-0.001,0.001-0.002,0.002-0.003,0.004c-0.002,0.003-0.004,0.007-0.007,0.01c-0.001,0.001-0.002,0.003-0.005,0.005
		c-0.001,0.001-0.002,0.004-0.004,0.005c-0.001,0.002-0.002,0.004-0.004,0.007c0,0-0.001,0.001-0.001,0.002
		c-0.004,0.005-0.008,0.01-0.013,0.014l0,0c-0.013,0.019-0.026,0.037-0.041,0.055l0.786,0.604l0.155-0.205L52.711,47.056
		L52.711,47.056z M53.434,46.052c-0.029,0.042-0.059,0.084-0.088,0.127h-0.001c-0.004,0.008-0.012,0.017-0.017,0.024
		c-0.001,0.001-0.001,0.001-0.001,0.002c-0.002,0.004-0.004,0.007-0.007,0.011l-0.001,0.001c-0.002,0.004-0.007,0.009-0.009,0.012
		c-0.001,0.001-0.001,0.003-0.003,0.004c-0.001,0.001-0.002,0.003-0.003,0.005c-0.004,0.007-0.009,0.012-0.012,0.017l0.811,0.568
		l0.146-0.21L53.434,46.052L53.434,46.052z M54.112,45.016c-0.017,0.026-0.033,0.053-0.05,0.078c0,0,0,0.001-0.001,0.001
		c-0.002,0.004-0.005,0.01-0.008,0.013c0,0,0,0.001-0.001,0.002c-0.002,0.003-0.003,0.006-0.006,0.009
		c-0.001,0.002-0.002,0.003-0.003,0.004c-0.001,0.003-0.003,0.006-0.004,0.008c-0.002,0.003-0.004,0.007-0.006,0.009
		c-0.001,0.001-0.001,0.004-0.002,0.005c-0.002,0.003-0.003,0.005-0.006,0.008c0,0.001-0.001,0.002-0.002,0.003
		c-0.014,0.022-0.029,0.048-0.045,0.071l0.835,0.531l0.136-0.216L54.112,45.016L54.112,45.016z M54.744,43.952
		c-0.008,0.013-0.016,0.026-0.022,0.04c0,0.001,0,0.001-0.002,0.002c-0.002,0.003-0.005,0.008-0.007,0.012l0,0
		c-0.002,0.005-0.004,0.008-0.006,0.011c-0.001,0.002-0.001,0.004-0.002,0.005c-0.002,0.003-0.003,0.006-0.005,0.008
		c-0.002,0.003-0.004,0.006-0.006,0.009c-0.001,0.002-0.002,0.004-0.002,0.006c-0.002,0.001-0.003,0.005-0.004,0.007
		s-0.002,0.002-0.003,0.004c-0.005,0.007-0.01,0.016-0.013,0.022c-0.001,0.002-0.002,0.003-0.003,0.005
		c-0.001,0.003-0.003,0.005-0.004,0.008c-0.002,0.003-0.005,0.006-0.006,0.009c-0.001,0.001-0.001,0.002-0.002,0.004
		c-0.002,0.004-0.004,0.007-0.006,0.01c0,0,0,0.001-0.001,0.002c-0.01,0.017-0.021,0.036-0.03,0.053l0.858,0.495l0.127-0.223
		L54.744,43.952L54.744,43.952z M55.329,42.861c-0.029,0.059-0.061,0.119-0.091,0.178c-0.001,0.001-0.002,0.002-0.002,0.003
		c-0.001,0.004-0.003,0.006-0.005,0.009c-0.002,0.004-0.004,0.009-0.007,0.013l0,0c-0.002,0.007-0.006,0.013-0.009,0.018
		l0.878,0.457l0.117-0.228L55.329,42.861L55.329,42.861z M55.866,41.746c-0.008,0.017-0.016,0.033-0.022,0.05
		c-0.001,0.001-0.002,0.003-0.002,0.005c-0.001,0.002-0.002,0.003-0.003,0.005c-0.001,0.004-0.004,0.006-0.005,0.01
		c0,0.001,0,0.002-0.001,0.002c-0.002,0.005-0.004,0.008-0.006,0.013c0,0,0,0,0,0.001c-0.002,0.006-0.004,0.01-0.007,0.014l0,0
		c-0.004,0.01-0.008,0.019-0.013,0.028c0,0.001,0,0.001,0,0.001c-0.002,0.004-0.004,0.009-0.005,0.013c0,0-0.001,0-0.001,0.001
		c-0.002,0.003-0.003,0.007-0.006,0.011c-0.001,0.003-0.002,0.005-0.003,0.007c-0.001,0-0.001,0.001-0.002,0.002
		c-0.009,0.021-0.02,0.044-0.028,0.063l0.896,0.418l0.108-0.232L55.866,41.746L55.866,41.746z M56.353,40.609
		c-0.006,0.017-0.013,0.034-0.02,0.05l-0.001,0.002c-0.023,0.059-0.047,0.118-0.073,0.178l0.916,0.376l0.097-0.236L56.353,40.609
		L56.353,40.609z M56.79,39.451c-0.02,0.054-0.038,0.106-0.057,0.16c0,0,0,0,0,0.001c-0.002,0.004-0.003,0.007-0.005,0.011
		c0,0.002-0.001,0.003-0.001,0.005c-0.001,0.002-0.002,0.005-0.003,0.008c-0.002,0.003-0.004,0.009-0.006,0.013v0.002
		c-0.004,0.012-0.008,0.021-0.012,0.034l0.931,0.337l0.087-0.241L56.79,39.451L56.79,39.451z M57.176,38.274
		c-0.023,0.08-0.048,0.158-0.073,0.238l0.944,0.295l0.076-0.246L57.176,38.274L57.176,38.274z M57.509,37.083
		c-0.015,0.062-0.03,0.119-0.046,0.179c-0.001,0.001-0.001,0.002-0.001,0.003c-0.001,0.002-0.002,0.006-0.002,0.009
		c-0.004,0.016-0.009,0.032-0.014,0.049l0.958,0.255l0.064-0.248L57.509,37.083L57.509,37.083z M57.79,35.878
		c-0.003,0.017-0.007,0.033-0.01,0.049c0,0.005-0.002,0.007-0.003,0.01c0,0.001,0,0.002,0,0.003c-0.013,0.061-0.026,0.12-0.04,0.18
		l0.969,0.212l0.053-0.25L57.79,35.878L57.79,35.878z M58.019,34.662c-0.005,0.027-0.011,0.054-0.015,0.083c0,0.002,0,0.002,0,0.003
		c-0.001,0.002-0.001,0.005-0.002,0.008c-0.008,0.05-0.017,0.1-0.025,0.149l0.977,0.169l0.042-0.252L58.019,34.662L58.019,34.662z
		 M58.192,33.437c-0.009,0.081-0.021,0.163-0.031,0.245l0.982,0.126l0.031-0.254L58.192,33.437L58.192,33.437z M58.312,32.204
		c-0.002,0.033-0.005,0.066-0.007,0.1c-0.001,0.002-0.001,0.002-0.001,0.004c0,0.003,0,0.006,0,0.008
		c-0.001,0.002-0.001,0.005-0.001,0.008c0,0.002-0.001,0.006-0.001,0.009s0,0.006-0.001,0.009c0,0.002,0,0.005,0,0.007
		c0,0.001-0.001,0.005-0.001,0.007s0,0.004,0,0.007c0,0.002-0.001,0.004-0.001,0.006c0,0.005-0.002,0.01-0.002,0.015
		c0,0.001,0,0.003,0,0.004c-0.001,0.003-0.001,0.007-0.001,0.01l0,0c-0.002,0.019-0.002,0.037-0.004,0.056l0.985,0.084l0.022-0.256
		L58.312,32.204L58.312,32.204z M58.38,30.969c-0.002,0.058-0.004,0.115-0.006,0.173c-0.001,0.004-0.001,0.009-0.001,0.013
		c0,0,0,0,0,0.001c-0.001,0.02-0.002,0.041-0.002,0.061l0.989,0.041l0.009-0.256L58.38,30.969L58.38,30.969z M59.384,29.72
		l-0.991,0.011c0.001,0.082,0.003,0.166,0.003,0.248l0.99-0.001L59.384,29.72L59.384,29.72z M59.344,28.44l-0.989,0.053
		c0.004,0.05,0.006,0.101,0.008,0.152c0,0.002,0,0.003,0,0.005c0,0.002,0.001,0.005,0.001,0.006
		c0.001,0.028,0.002,0.055,0.004,0.083l0.99-0.044L59.344,28.44L59.344,28.44z M59.248,27.164l-0.985,0.096
		c0.002,0.028,0.005,0.055,0.008,0.083c0,0.002,0,0.004,0,0.006s0.001,0.004,0.001,0.006c0,0.003,0,0.005,0.001,0.008
		c0,0.002,0,0.004,0,0.006c0.001,0.004,0.001,0.008,0.001,0.013c0.001,0.001,0.001,0.002,0.001,0.003c0,0.003,0,0.007,0.001,0.011
		c0,0.001,0,0.003,0,0.004c0,0.003,0.001,0.008,0.001,0.011c0,0.001,0,0.002,0.001,0.003c0,0.003,0,0.01,0.001,0.013
		c0,0.001,0,0.003,0,0.005c0,0.002,0.002,0.006,0.002,0.009c0,0.001,0,0.003,0,0.005c0,0.003,0,0.006,0,0.01
		c0.001,0.001,0.001,0.003,0.001,0.006c0,0.003,0.001,0.007,0.001,0.011c0,0.001,0,0.003,0,0.005
		c0.001,0.004,0.001,0.005,0.001,0.009c0,0.002,0.001,0.003,0.001,0.005c0,0.005,0.001,0.009,0.001,0.014v0l0.986-0.087
		L59.248,27.164L59.248,27.164z M59.097,25.892l-0.979,0.139c0.009,0.063,0.018,0.127,0.025,0.192c0,0.002,0,0.001,0,0.003
		c0.001,0.001,0.001,0.004,0.001,0.007c0.003,0.014,0.005,0.028,0.007,0.043l0.981-0.129L59.097,25.892L59.097,25.892z
		 M58.891,24.627l-0.974,0.182c0.015,0.082,0.029,0.162,0.044,0.244l0.976-0.173L58.891,24.627L58.891,24.627z M58.629,23.374
		l-0.964,0.223c0.001,0.007,0.003,0.014,0.004,0.021c0,0.002,0,0.003,0.001,0.005c0,0.002,0.001,0.004,0.001,0.006
		c0.017,0.071,0.032,0.139,0.047,0.209l0.968-0.215L58.629,23.374L58.629,23.374z M58.312,22.133l-0.953,0.266
		c0.009,0.031,0.019,0.063,0.026,0.094v0.001c0.001,0.005,0.003,0.01,0.004,0.016c0.001,0.001,0.001,0.004,0.002,0.006
		c0,0.002,0.001,0.004,0.001,0.005c0.001,0.003,0.002,0.007,0.004,0.01c0,0.001,0,0.002,0,0.003c0.01,0.035,0.018,0.068,0.028,0.104
		l0.956-0.258L58.312,22.133L58.312,22.133z M57.941,20.906L57,21.214c0.025,0.078,0.052,0.156,0.075,0.236l0.945-0.3L57.941,20.906
		L57.941,20.906z M57.517,19.697l-0.926,0.349c0.026,0.073,0.053,0.145,0.08,0.217l0,0c0.001,0.005,0.003,0.009,0.004,0.013
		c0.001,0,0.001,0.001,0.001,0.001l0.93-0.34L57.517,19.697L57.517,19.697z M57.04,18.508l-0.911,0.389
		c0.001,0.001,0.002,0.003,0.002,0.004c0.001,0.002,0.002,0.005,0.004,0.007c0,0.002,0.001,0.004,0.002,0.006
		s0.003,0.006,0.003,0.009c0,0.001,0.001,0.002,0.001,0.003c0.002,0.005,0.005,0.009,0.007,0.014c0,0,0,0,0,0.001
		c0.026,0.062,0.052,0.122,0.078,0.185l0.913-0.381L57.04,18.508L57.04,18.508z M56.511,17.341l-0.893,0.429
		c0.013,0.026,0.023,0.051,0.037,0.077l0.001,0.001c0.003,0.008,0.008,0.017,0.012,0.024c0.001,0.003,0.001,0.004,0.003,0.006
		c0,0.001,0.001,0.003,0.002,0.005c0.001,0.003,0.003,0.007,0.005,0.011v0c0.002,0.005,0.004,0.009,0.008,0.014
		c0,0.001,0,0.001,0,0.001c0.012,0.027,0.025,0.056,0.039,0.083l0.896-0.42L56.511,17.341L56.511,17.341z M55.931,16.199
		l-0.872,0.467c0.011,0.02,0.021,0.04,0.032,0.06l0,0c0.003,0.006,0.005,0.012,0.009,0.018v0.001
		c0.002,0.003,0.003,0.005,0.004,0.008c0.001,0.001,0.003,0.002,0.004,0.005s0.003,0.004,0.003,0.007
		c0.002,0.003,0.003,0.006,0.005,0.01c0.001,0.002,0.002,0.003,0.003,0.005c0.002,0.003,0.003,0.005,0.004,0.008
		c0.001,0.001,0.002,0.002,0.002,0.003c0.017,0.031,0.034,0.063,0.051,0.095l0.877-0.46L55.931,16.199L55.931,16.199z
		 M55.303,15.083l-0.851,0.504c0.041,0.071,0.082,0.142,0.124,0.214l0.855-0.497L55.303,15.083L55.303,15.083z M54.626,13.996
		l-0.83,0.542c0.028,0.041,0.054,0.081,0.08,0.122c0.001,0.001,0.001,0.002,0.002,0.002c0.005,0.008,0.01,0.016,0.015,0.024
		c0,0,0.002,0.001,0.003,0.002c0.011,0.019,0.024,0.038,0.035,0.057l0.834-0.534L54.626,13.996L54.626,13.996z M53.902,12.939
		l-0.805,0.577c0.027,0.037,0.054,0.075,0.08,0.112c0.001,0,0.001,0.002,0.001,0.002c0.002,0.002,0.005,0.005,0.007,0.009
		c0.001,0.001,0.002,0.002,0.003,0.004s0.002,0.003,0.003,0.004c0.017,0.023,0.033,0.046,0.05,0.07l0.81-0.57L53.902,12.939
		L53.902,12.939z M53.133,11.915l-0.777,0.612c0.041,0.053,0.084,0.107,0.125,0.162c0.002,0.003,0.004,0.005,0.007,0.008
		c0,0.001,0,0.001,0.001,0.002c0.006,0.007,0.013,0.016,0.018,0.023l0.785-0.605L53.133,11.915L53.133,11.915z M52.321,10.925
		l-0.752,0.645c0.053,0.063,0.106,0.125,0.16,0.189l0.757-0.638L52.321,10.925L52.321,10.925z M51.466,9.972l-0.723,0.677
		c0.057,0.06,0.112,0.12,0.167,0.18c0,0,0.001,0.001,0.001,0.001l0.729-0.67L51.466,9.972L51.466,9.972z M50.571,9.057l-0.693,0.707
		c0.004,0.004,0.007,0.007,0.011,0.011c0,0,0,0,0,0c0.005,0.003,0.008,0.006,0.011,0.01c0,0,0,0,0,0
		c0.037,0.035,0.074,0.072,0.111,0.108c0,0,0.001,0.001,0.001,0.001c0.002,0.002,0.004,0.005,0.006,0.007
		c0.013,0.012,0.024,0.023,0.036,0.036l0.698-0.702L50.571,9.057L50.571,9.057z M49.637,8.18l-0.661,0.737
		c0.017,0.016,0.034,0.031,0.051,0.046c0.002,0.001,0.002,0.001,0.003,0.002c0.002,0.002,0.003,0.003,0.005,0.005
		c0.003,0.002,0.007,0.006,0.009,0.008c0.001,0,0.002,0.001,0.002,0.001c0.003,0.002,0.007,0.006,0.009,0.008
		c0.001,0,0.002,0.001,0.003,0.002c0.006,0.006,0.015,0.014,0.021,0.019c0,0,0.001,0,0.001,0.001
		c0.007,0.007,0.015,0.014,0.021,0.02c0,0,0.001,0.001,0.001,0.001c0.004,0.002,0.008,0.006,0.01,0.008c0,0,0.001,0.001,0.002,0.002
		c0.002,0.003,0.007,0.006,0.011,0.009c0.001,0.001,0.002,0.003,0.003,0.004c0.001,0.001,0.004,0.003,0.005,0.004
		c0.002,0.002,0.004,0.004,0.006,0.005c0,0,0.001,0,0.001,0.001c0.007,0.006,0.014,0.012,0.02,0.018l0.668-0.731L49.637,8.18
		L49.637,8.18z M48.665,7.346l-0.629,0.765c0.002,0.001,0.004,0.003,0.006,0.004c0,0,0.003,0.002,0.005,0.003
		c0.001,0.002,0.003,0.003,0.004,0.005c0.002,0.001,0.004,0.003,0.007,0.005c0.001,0.001,0.002,0.002,0.003,0.003
		c0.004,0.002,0.007,0.005,0.011,0.008c0.001,0,0.001,0.001,0.002,0.001c0.004,0.003,0.007,0.005,0.009,0.008
		c0.001,0,0.001,0,0.002,0.001c0.048,0.04,0.095,0.078,0.143,0.118l0.636-0.759L48.665,7.346L48.665,7.346z M47.658,6.555
		l-0.595,0.791c0.009,0.007,0.019,0.014,0.028,0.021c0.001,0,0.001,0,0.002,0.001c0.003,0.002,0.006,0.005,0.008,0.007
		c0.005,0.002,0.008,0.005,0.011,0.008l0.001,0c0.033,0.024,0.065,0.049,0.098,0.074c0.001,0,0.002,0.001,0.002,0.001
		c0.002,0.002,0.004,0.003,0.008,0.005c0.013,0.01,0.026,0.021,0.041,0.031l0.601-0.787L47.658,6.555L47.658,6.555z M46.617,5.807
		l-0.56,0.816c0.068,0.047,0.136,0.094,0.205,0.141l0.565-0.812L46.617,5.807L46.617,5.807z M45.547,5.106l-0.524,0.84
		c0.036,0.023,0.074,0.046,0.111,0.07c0.001,0,0.002,0,0.002,0c0.002,0.001,0.004,0.003,0.008,0.005
		c0.002,0.001,0.005,0.003,0.006,0.004c0.003,0.001,0.005,0.002,0.006,0.004c0.003,0.002,0.008,0.004,0.011,0.006
		c0.001,0,0.001,0,0.002,0.001c0.021,0.014,0.042,0.027,0.064,0.041l0.531-0.836L45.547,5.106L45.547,5.106z M44.445,4.452
		l-0.487,0.862c0.072,0.041,0.143,0.081,0.215,0.123l0.495-0.859L44.445,4.452L44.445,4.452z M43.316,3.847l-0.449,0.883
		c0.023,0.013,0.049,0.025,0.072,0.038c0.002,0,0.004,0.001,0.006,0.002c0.002,0,0.005,0.002,0.006,0.003
		c0.004,0.001,0.009,0.004,0.012,0.005c0.001,0,0.001,0,0.002,0.001c0.031,0.016,0.062,0.032,0.093,0.048
		c0.002,0.001,0.004,0.002,0.005,0.003c0.001,0,0.003,0.001,0.005,0.002c0.007,0.003,0.013,0.007,0.021,0.01l0.456-0.879
		L43.316,3.847L43.316,3.847z M42.162,3.292l-0.41,0.901c0.002,0.001,0.006,0.003,0.009,0.004v0
		c0.008,0.003,0.017,0.008,0.025,0.011c0.002,0.001,0.003,0.001,0.005,0.002c0.001,0.001,0.003,0.002,0.006,0.003
		c0.004,0.001,0.006,0.002,0.009,0.003c0.001,0,0.002,0.001,0.003,0.001c0.004,0.002,0.01,0.004,0.014,0.006l0.001,0
		c0.051,0.023,0.102,0.047,0.153,0.071l0.418-0.898L42.162,3.292L42.162,3.292z M40.983,2.788l-0.369,0.919
		c0.009,0.003,0.019,0.007,0.027,0.011c0.002,0,0.003,0.001,0.005,0.001c0.002,0.001,0.004,0.002,0.006,0.003
		c0.003,0,0.005,0.002,0.007,0.002s0.003,0,0.003,0.001c0.005,0.002,0.011,0.004,0.018,0.006l0.001,0
		c0.032,0.014,0.065,0.027,0.098,0.04c0.001,0.001,0.002,0.001,0.003,0.002c0.003,0.001,0.005,0.002,0.007,0.003
		c0.005,0.001,0.008,0.002,0.012,0.004c0.001,0,0.001,0,0.001,0c0.005,0.002,0.01,0.004,0.014,0.006c0,0,0,0,0.001,0
		c0.009,0.004,0.02,0.008,0.027,0.011l0.378-0.915L40.983,2.788L40.983,2.788z M39.784,2.336L39.456,3.27
		c0.004,0.001,0.008,0.004,0.013,0.004c0.001,0.001,0.003,0.001,0.005,0.002s0.003,0.001,0.004,0.002
		c0.04,0.014,0.079,0.028,0.119,0.042l0.001,0c0.003,0.001,0.007,0.001,0.008,0.002c0.003,0.001,0.004,0.001,0.007,0.002
		c0.002,0.001,0.003,0.001,0.005,0.002c0.005,0.001,0.009,0.003,0.014,0.005c0,0,0,0,0.001,0c0.02,0.007,0.037,0.014,0.057,0.021
		l0.338-0.932L39.784,2.336L39.784,2.336z M38.567,1.938L38.28,2.885c0.032,0.01,0.066,0.02,0.1,0.03l0.001,0.001
		c0.001,0,0.004,0.001,0.006,0.002c0.003,0.001,0.006,0.001,0.009,0.002c0.002,0,0.003,0.001,0.004,0.001
		c0.005,0.001,0.008,0.002,0.015,0.004l0,0c0.032,0.01,0.068,0.021,0.103,0.032l0.295-0.945L38.567,1.938L38.567,1.938z
		 M37.334,1.593l-0.246,0.959c0.012,0.003,0.024,0.006,0.038,0.01c0.002,0,0.002,0,0.004,0.001s0.003,0.001,0.005,0.001
		c0.065,0.017,0.128,0.033,0.192,0.05l0.253-0.957L37.334,1.593L37.334,1.593z M36.085,1.304l-0.203,0.969
		c0.052,0.011,0.101,0.021,0.151,0.032l0.001,0c0.005,0.001,0.011,0.002,0.015,0.003c0.001,0,0.001,0,0.002,0
		c0.004,0,0.006,0.001,0.01,0.002s0.006,0.001,0.008,0.002s0.002,0,0.003,0.001c0.019,0.003,0.036,0.007,0.054,0.011l0.211-0.968
		L36.085,1.304L36.085,1.304z M34.826,1.068l-0.16,0.977c0.037,0.006,0.074,0.012,0.111,0.019c0.001,0,0.002,0,0.002,0
		c0.005,0,0.01,0.001,0.016,0.002c0.001,0,0.004,0,0.006,0c0.002,0,0.004,0,0.006,0.001c0.003,0,0.005,0.001,0.009,0.002
		c0.001,0,0.003,0,0.004,0.001c0.005,0,0.009,0.001,0.015,0.002l0,0c0.005,0,0.01,0.001,0.014,0.002h0.001
		c0.02,0.003,0.042,0.007,0.06,0.011l0.17-0.976L34.826,1.068L34.826,1.068z M33.557,0.889l-0.117,0.983
		c0.082,0.01,0.165,0.02,0.246,0.03l0.126-0.982L33.557,0.889L33.557,0.889z M32.282,0.765l-0.073,0.987c0.001,0,0.002,0,0.004,0
		h0.001c0.007,0.001,0.015,0.002,0.021,0.002h0.001c0.004,0,0.007,0,0.011,0l0.002,0c0.069,0.005,0.139,0.011,0.207,0.016
		l0.084-0.986L32.282,0.765L32.282,0.765z M31.005,0.696l-0.032,0.99c0.083,0.002,0.165,0.005,0.248,0.009l0.04-0.989L31.005,0.696
		L31.005,0.696z"/>
	<g>
		<path d="M14.678,10.801l-0.82,0.735l2.47,2.754c0.145,0.161,0.132,0.395-0.029,0.538c-0.155,0.14-0.394,0.131-0.538-0.029
			l-2.47-2.753l-0.816,0.731c-0.159,0.144-0.404,0.121-0.542-0.034c-0.144-0.161-0.13-0.395,0.03-0.539l2.201-1.974
			c0.155-0.14,0.395-0.131,0.538,0.029C14.841,10.413,14.833,10.663,14.678,10.801z"/>
		<path d="M18.479,12.563l-1.973-3.585c-0.103-0.188-0.037-0.414,0.151-0.517c0.188-0.104,0.42-0.042,0.524,0.146l0.802,1.458
			l1.574-0.865l-0.802-1.459c-0.103-0.188-0.038-0.414,0.15-0.518c0.188-0.104,0.42-0.041,0.524,0.147l1.972,3.584
			c0.103,0.189,0.032,0.418-0.157,0.522c-0.188,0.104-0.415,0.038-0.518-0.15l-0.803-1.458l-1.574,0.865l0.802,1.458
			c0.104,0.187,0.033,0.417-0.156,0.521S18.583,12.752,18.479,12.563z"/>
		<path d="M23,10.332l-1.132-3.93c-0.059-0.206,0.055-0.412,0.263-0.471l0.006-0.002c0,0,0,0,0.012-0.004l2.159-0.621
			C24.5,5.25,24.721,5.358,24.78,5.566c0.06,0.206-0.066,0.422-0.259,0.478l-1.804,0.52l0.35,1.218l1.551-0.446
			c0.201-0.057,0.417,0.068,0.472,0.261c0.059,0.207-0.059,0.422-0.259,0.479L23.28,8.521l0.352,1.226l1.805-0.52
			c0.193-0.055,0.414,0.061,0.473,0.268c0.058,0.199-0.069,0.416-0.261,0.471l-2.157,0.621c-0.013,0.004-0.015-0.002-0.015-0.002
			l-0.004,0.009C23.265,10.652,23.058,10.531,23,10.332z"/>
		<path d="M29.321,6.945c0.094-1.368,1.311-2.408,2.695-2.328c0.607,0.04,1.146,0.274,1.562,0.642
			c0.156,0.147,0.169,0.392,0.034,0.557c-0.151,0.164-0.406,0.175-0.559,0.041c-0.288-0.269-0.659-0.423-1.088-0.451
			c-0.477-0.03-0.933,0.136-1.276,0.419c-0.332,0.299-0.551,0.701-0.581,1.17c-0.03,0.469,0.137,0.911,0.429,1.234
			c0.305,0.325,0.735,0.546,1.211,0.577c0.429,0.027,0.812-0.08,1.136-0.31c0.168-0.107,0.422-0.063,0.55,0.111
			c0.113,0.181,0.069,0.428-0.105,0.548c-0.455,0.312-1.021,0.477-1.63,0.438C30.317,9.506,29.24,8.32,29.321,6.945z"/>
		<path d="M37.338,9.632l-1.611-0.495L35.135,9.9c-0.103,0.127-0.27,0.17-0.414,0.126c-0.048-0.015-0.086-0.034-0.121-0.059
			c-0.169-0.132-0.197-0.373-0.071-0.544l2.666-3.457c0.104-0.128,0.279-0.175,0.422-0.124c0.154,0.04,0.267,0.176,0.281,0.34
			l0.265,4.357c0.008,0.212-0.149,0.396-0.365,0.41c-0.037,0.003-0.086-0.005-0.133-0.019c-0.145-0.045-0.259-0.174-0.266-0.336
			L37.338,9.632z M37.289,8.819l-0.098-1.591l-0.977,1.261L37.289,8.819z"/>
		<path d="M41.977,12.575c-0.039,0.209-0.242,0.34-0.45,0.301c-0.027-0.008-0.083-0.022-0.144-0.057c0,0,0,0-0.006-0.003
			c-0.06-0.035-0.145-0.098-0.196-0.2c-0.051-0.092-0.073-0.208-0.073-0.32c0.014-0.223,0.096-0.463,0.282-0.794
			c0.062-0.119,0.081-0.21,0.077-0.3c0.002-0.087-0.038-0.188-0.082-0.277c-0.078-0.156-0.208-0.293-0.254-0.336l-0.711-0.404
			l-0.744,1.308c-0.103,0.18-0.338,0.246-0.523,0.139c-0.188-0.106-0.247-0.339-0.145-0.519l2.02-3.554
			c0.106-0.186,0.332-0.249,0.521-0.143c0,0,0,0,0.005,0.003l1.072,0.609c0.716,0.409,0.958,1.311,0.552,2.027
			c-0.225,0.398-0.604,0.644-1.03,0.722c0.043,0.104,0.075,0.217,0.084,0.342c0.021,0.244-0.026,0.511-0.171,0.764
			c-0.107,0.176-0.155,0.302-0.178,0.368C41.961,12.335,41.998,12.453,41.977,12.575z M42.51,9.676
			c0.198-0.349,0.077-0.784-0.266-0.978l-0.74-0.421L40.8,9.517l0.739,0.421C41.883,10.133,42.317,10.013,42.51,9.676z"/>
		<path d="M42.904,13.485l2.775-3.004c0.147-0.158,0.381-0.167,0.54-0.022l0.6,0.555c0.983,0.908,1.04,2.442,0.137,3.42
			c-0.913,0.987-2.445,1.054-3.428,0.146l-0.603-0.555C42.769,13.878,42.763,13.638,42.904,13.485z M43.732,13.722l0.317,0.292
			c0.676,0.616,1.715,0.575,2.341-0.102c0.616-0.667,0.58-1.711-0.093-2.333l-0.316-0.292L43.732,13.722z"/>
	</g>
	<g>
		<g>
			<path d="M15.417,50.92l2.247-3.414c0.118-0.179,0.353-0.223,0.527-0.107c0.005,0.004,0.005,0.004,0.017,0.011
				c0,0,0,0,0.006,0.004l0.798,0.525c0.607,0.4,0.776,1.216,0.375,1.822c-0.164,0.249-0.393,0.422-0.653,0.515
				c0.202,0.449,0.185,0.992-0.104,1.432c-0.454,0.689-1.374,0.88-2.057,0.43l-1.024-0.674c-0.005-0.003-0.002-0.008-0.002-0.008
				c-0.011-0.01-0.016-0.002-0.021-0.008C15.354,51.334,15.304,51.094,15.417,50.92z M16.273,51.019l0.724,0.476
				c0.333,0.212,0.771,0.127,0.991-0.21c0.217-0.329,0.123-0.765-0.203-0.986l-0.725-0.476L16.273,51.019z M17.483,49.178
				l0.498,0.328c0.255,0.168,0.597,0.087,0.766-0.167c0.167-0.256,0.098-0.591-0.157-0.758l-0.498-0.328L17.483,49.178z"/>
			<path d="M21.481,54.58c-1.049-0.384-1.573-1.534-1.195-2.569l0.846-2.318c0.074-0.2,0.288-0.301,0.49-0.227
				c0.194,0.072,0.306,0.289,0.233,0.491l-0.846,2.318c-0.234,0.639,0.098,1.349,0.736,1.582c0.644,0.236,1.349-0.097,1.582-0.736
				l0.846-2.317c0.074-0.202,0.293-0.299,0.495-0.225c0.202,0.074,0.302,0.287,0.229,0.489l-0.847,2.317
				C23.672,54.42,22.523,54.96,21.481,54.58z"/>
			<path d="M29.062,55.577c0.046,0.208-0.089,0.407-0.296,0.454c-0.028,0.004-0.085,0.012-0.154,0.003c0,0,0,0-0.006-0.001
				c-0.069-0.007-0.17-0.032-0.26-0.105c-0.083-0.064-0.148-0.163-0.192-0.267c-0.074-0.21-0.095-0.464-0.052-0.842
				c0.008-0.131-0.009-0.224-0.048-0.305c-0.033-0.08-0.107-0.158-0.184-0.224c-0.134-0.112-0.307-0.188-0.367-0.209l-0.811-0.091
				l-0.17,1.492c-0.023,0.207-0.215,0.359-0.429,0.336c-0.213-0.026-0.358-0.216-0.334-0.421l0.459-4.063
				c0.024-0.213,0.208-0.357,0.421-0.334c0,0,0,0,0.007,0.001l1.225,0.139c0.819,0.093,1.397,0.827,1.306,1.646
				c-0.051,0.455-0.304,0.83-0.666,1.069c0.082,0.079,0.155,0.17,0.213,0.279c0.114,0.217,0.175,0.481,0.142,0.77
				c-0.03,0.207-0.024,0.34-0.018,0.41C28.954,55.362,29.034,55.456,29.062,55.577z M28.413,52.7
				c0.044-0.398-0.236-0.752-0.628-0.795l-0.847-0.097l-0.16,1.418l0.847,0.097C28.016,53.367,28.368,53.085,28.413,52.7z"/>
			<path d="M31.033,55.744l-0.385-4.074c-0.021-0.213,0.13-0.396,0.343-0.417H31c0,0,0,0,0.012-0.002l2.238-0.21
				c0.2-0.019,0.396,0.13,0.416,0.344c0.02,0.214-0.145,0.403-0.344,0.423l-1.871,0.176l0.119,1.264l1.61-0.151
				c0.205-0.02,0.395,0.146,0.414,0.344c0.02,0.215-0.137,0.403-0.343,0.423l-1.609,0.152l0.12,1.271l1.87-0.177
				c0.201-0.02,0.397,0.136,0.418,0.351c0.02,0.207-0.145,0.396-0.345,0.414l-2.236,0.212c-0.015,0.002-0.016-0.006-0.016-0.006
				l-0.005,0.009C31.234,56.109,31.053,55.951,31.033,55.744z"/>
			<path d="M38.122,53.565l-1.604,0.511l-0.049,0.96c-0.014,0.164-0.125,0.295-0.271,0.342c-0.046,0.014-0.087,0.021-0.132,0.02
				c-0.213-0.012-0.373-0.193-0.368-0.405l0.222-4.352c0.013-0.162,0.128-0.302,0.274-0.341c0.149-0.056,0.318-0.008,0.423,0.119
				l2.697,3.422c0.126,0.171,0.101,0.411-0.067,0.545c-0.028,0.022-0.073,0.043-0.119,0.059c-0.146,0.047-0.312,0.005-0.409-0.123
				L38.122,53.565z M37.62,52.926l-0.986-1.248l-0.083,1.589L37.62,52.926z"/>
			<path d="M42.836,52.56c-0.955,0.576-2.179,0.265-2.748-0.678l-1.273-2.11c-0.111-0.184-0.056-0.411,0.129-0.522
				c0.177-0.107,0.417-0.058,0.528,0.126l1.274,2.109c0.351,0.58,1.111,0.769,1.69,0.418c0.588-0.354,0.77-1.111,0.419-1.692
				l-1.274-2.109c-0.11-0.183-0.049-0.416,0.134-0.526c0.186-0.11,0.414-0.055,0.524,0.129l1.274,2.109
				C44.082,50.755,43.783,51.987,42.836,52.56z"/>
		</g>
	</g>
	<polygon fill="#010101" points="6.309,29.203 7.093,27.664 7.82,29.23 9.526,29.5 8.263,30.677 8.535,32.382 7.023,31.543 
		5.486,32.328 5.814,30.633 4.593,29.414 	"/>
	<polygon fill="#010101" points="52.021,29.203 52.805,27.664 53.533,29.23 55.237,29.5 53.976,30.677 54.246,32.382 52.735,31.543 
		51.197,32.328 51.526,30.633 50.305,29.414 	"/>
	<g>
		<g>
			<g>
				<polygon fill="#FFFFFF" points="35.044,37.369 24.307,39.069 24.307,22.795 35.044,21.096 				"/>
				<path d="M24.307,39.316c-0.059,0-0.115-0.02-0.161-0.059c-0.055-0.048-0.086-0.116-0.086-0.188V22.795
					c0-0.122,0.088-0.225,0.209-0.244l10.736-1.699c0.073-0.011,0.146,0.01,0.2,0.057c0.056,0.047,0.087,0.115,0.087,0.188v16.273
					c0,0.122-0.089,0.226-0.208,0.244l-10.738,1.701C24.332,39.316,24.32,39.316,24.307,39.316z M24.554,23.006v15.773l10.242-1.622
					V21.386L24.554,23.006z"/>
			</g>
			<g>
				<polygon fill="#FFFFFF" points="35.778,40.202 24.307,39.069 24.307,22.795 35.778,23.928 				"/>
				<path d="M35.778,40.45c-0.008,0-0.017,0-0.024-0.001l-11.472-1.133c-0.126-0.014-0.223-0.12-0.223-0.247V22.795
					c0-0.07,0.029-0.136,0.081-0.183c0.052-0.047,0.123-0.068,0.19-0.063l11.472,1.133c0.127,0.012,0.224,0.119,0.224,0.246v16.274
					c0,0.069-0.03,0.137-0.082,0.184C35.899,40.427,35.84,40.45,35.778,40.45z M24.554,38.845l10.978,1.083V24.153l-10.978-1.084
					V38.845z"/>
			</g>
		</g>
		<g>
			<polygon points="35.118,33.934 25.027,32.964 25.027,31.246 35.118,32.287 			"/>
			<polygon points="35.118,36.37 25.027,35.401 25.027,33.784 35.118,34.807 			"/>
			<polygon fill="#010101" points="26.146,28.53 26.66,27.666 27.022,28.604 28.003,28.826 27.224,29.461 27.317,30.463 
				26.47,29.917 25.547,30.314 25.803,29.342 25.14,28.586 			"/>
			<polygon fill="#010101" points="29.574,28.915 30.089,28.051 30.451,28.988 31.432,29.212 30.653,29.846 30.745,30.847 
				29.9,30.303 28.976,30.699 29.232,29.727 28.569,28.972 			"/>
			<polygon fill="#010101" points="33.087,29.312 33.603,28.448 33.964,29.387 34.944,29.608 34.166,30.244 34.259,31.246 
				33.413,30.7 32.489,31.098 32.744,30.125 32.082,29.369 			"/>
		</g>
	</g>
	<g>
		<path d="M18.24,20.262l1.551,2.197c0.008,0.01,0.018,0.026,0.02,0.038l0.002,0.006c0.005,0.009,0.008,0.02,0.011,0.031
			c0.006,0.006,0.004,0.009,0.008,0.011c0,0.01,0,0.024,0.002,0.037l-0.002,0.003c0,0.016,0.006,0.03,0.001,0.046l-0.002,0.004
			c0,0-0.003,0.004,0,0.005c-0.004,0.007-0.007,0.02-0.01,0.034c-0.003,0.003-0.005,0.007-0.005,0.007
			c-0.002,0.013-0.009,0.024-0.019,0.039c-0.007,0.01-0.013,0.021-0.023,0.03c-0.005,0.007-0.006,0.011-0.006,0.011
			c-0.011,0.009-0.02,0.013-0.024,0.02c-0.005,0.002-0.005,0.002-0.008,0.005c-0.012,0.012-0.029,0.017-0.041,0.02
			c-0.003,0.003-0.003,0.003-0.003,0.003c-0.015,0.005-0.025,0.009-0.034,0.014c-0.005,0.001-0.005,0.001-0.015,0.001
			c-0.01-0.002-0.021,0.001-0.031,0c-0.004,0.008-0.008,0.005-0.008,0.005c-0.012,0.003-0.028-0.003-0.042-0.005l-1.413-0.226
			l0.823,1.171c0.009,0.008,0.019,0.025,0.023,0.034c-0.001,0.003,0.001,0.006,0.001,0.006c0.003,0.012,0.006,0.023,0.008,0.035
			c0.007,0.005,0.005,0.008,0.009,0.011c-0.001,0.009,0.002,0.021,0.004,0.033c-0.004,0.007-0.004,0.007-0.004,0.007
			c0,0.015,0.004,0.034,0.004,0.042c-0.003,0.004-0.003,0.004-0.003,0.004s-0.002,0.004,0.002,0.006
			c-0.01,0.014-0.011,0.024-0.012,0.033c-0.001,0.005-0.004,0.008-0.006,0.012c-0.003,0.013-0.01,0.024-0.017,0.034
			c-0.007,0.012-0.016,0.025-0.026,0.033c-0.002,0.004-0.004,0.007-0.006,0.011c-0.01,0.009-0.018,0.014-0.023,0.021
			c-0.005,0.002-0.005,0.002-0.009,0.005c-0.01,0.009-0.029,0.017-0.042,0.019c-0.001,0.003-0.001,0.003-0.001,0.003
			c-0.014,0.006-0.023,0.005-0.034,0.014c-0.005,0.002-0.005,0.002-0.015,0.001c-0.012,0.003-0.022,0.001-0.033,0.005l-0.004-0.002
			c-0.01,0.002-0.027-0.003-0.042-0.002l-2.656-0.426c-0.123-0.022-0.214-0.14-0.188-0.269c0.017-0.124,0.138-0.214,0.264-0.192
			l2.111,0.337l-0.816-1.157c-0.059-0.082-0.056-0.184-0.006-0.263c0.048-0.077,0.138-0.125,0.24-0.111l1.398,0.227l-1.229-1.747
			c-0.075-0.105-0.05-0.25,0.059-0.328C18.022,20.13,18.17,20.156,18.24,20.262z"/>
		<path d="M21.351,20l-0.75,0.71l0.229,0.543c0.037,0.095,0.009,0.197-0.058,0.259c-0.021,0.02-0.042,0.035-0.068,0.046
			c-0.121,0.051-0.258-0.008-0.311-0.125l-1.038-2.462c-0.037-0.095-0.01-0.202,0.061-0.264c0.069-0.069,0.174-0.087,0.266-0.044
			l2.401,1.17c0.116,0.061,0.167,0.201,0.108,0.32c-0.01,0.02-0.028,0.044-0.05,0.064c-0.067,0.064-0.17,0.085-0.258,0.041
			L21.351,20z M20.904,19.779l-0.878-0.425l0.378,0.898L20.904,19.779z"/>
		<path d="M22.29,19.167c0.018-0.121,0.132-0.202,0.251-0.186c0.239,0.034,0.608,0.021,0.865-0.137
			c0.183-0.11,0.314-0.264,0.375-0.41c0.061-0.146,0.054-0.266-0.001-0.357c-0.028-0.046-0.059-0.073-0.103-0.097
			c-0.043-0.023-0.098-0.04-0.175-0.044c-0.147-0.005-0.364,0.04-0.604,0.13l-0.006,0.004c-0.191,0.072-0.379,0.122-0.556,0.14
			c-0.179,0.018-0.354-0.001-0.51-0.08c-0.108-0.055-0.199-0.14-0.264-0.249c-0.133-0.219-0.122-0.484-0.029-0.708
			c0.097-0.228,0.278-0.431,0.516-0.573c0.35-0.211,0.712-0.195,0.97-0.186c0.12,0.008,0.216,0.109,0.208,0.228
			c-0.002,0.121-0.104,0.215-0.226,0.211c-0.261-0.014-0.506-0.015-0.729,0.119c-0.164,0.1-0.279,0.238-0.333,0.371
			c-0.055,0.131-0.046,0.237-0.001,0.313c0.026,0.043,0.051,0.068,0.087,0.086c0.036,0.018,0.088,0.032,0.156,0.036
			c0.134,0.009,0.333-0.032,0.552-0.114l0.008-0.003c0.208-0.075,0.408-0.132,0.596-0.149c0.193-0.018,0.382-0.001,0.547,0.083
			c0.108,0.055,0.206,0.145,0.274,0.258c0.14,0.233,0.129,0.514,0.026,0.754c-0.1,0.238-0.29,0.458-0.549,0.614
			c-0.397,0.232-0.848,0.235-1.154,0.196C22.359,19.398,22.276,19.284,22.29,19.167z"/>
		<path d="M25.159,18.151L24.4,15.764c-0.04-0.126,0.026-0.253,0.151-0.293c0.125-0.04,0.258,0.026,0.298,0.149l0.308,0.972
			l1.048-0.333l-0.309-0.972c-0.04-0.124,0.027-0.252,0.152-0.292c0.125-0.041,0.257,0.024,0.298,0.151l0.759,2.386
			c0.041,0.125-0.03,0.253-0.155,0.295c-0.125,0.04-0.254-0.026-0.293-0.153l-0.309-0.97L25.3,17.037l0.309,0.97
			c0.04,0.126-0.031,0.255-0.156,0.294C25.328,18.341,25.2,18.276,25.159,18.151z"/>
		<path d="M27.616,14.917c-0.02-0.13,0.066-0.247,0.197-0.267c0.126-0.019,0.25,0.067,0.27,0.197l0.364,2.484
			c0.021,0.129-0.074,0.247-0.201,0.266c-0.13,0.019-0.246-0.067-0.265-0.198L27.616,14.917z"/>
		<path d="M29.792,17.216c-0.005,0.128-0.114,0.229-0.238,0.226c-0.13-0.004-0.229-0.115-0.225-0.242l0.088-2.466c0,0,0,0,0-0.004
			c-0.001-0.073,0.036-0.148,0.1-0.192c0.109-0.068,0.253-0.042,0.321,0.062l1.303,1.946l0.062-1.748
			c0.004-0.124,0.11-0.227,0.237-0.222c0.128,0.005,0.229,0.115,0.225,0.238l-0.087,2.465c-0.005,0.126-0.115,0.229-0.242,0.224
			c-0.068-0.002-0.13-0.038-0.171-0.09c-0.009-0.009-0.017-0.018-0.021-0.027l-1.291-1.933L29.792,17.216z"/>
		<path d="M32.687,16.115c0.245-0.82,1.115-1.271,1.943-1.025c0.346,0.104,0.641,0.321,0.834,0.595
			c0.084,0.108,0.055,0.265-0.053,0.343c-0.106,0.075-0.263,0.051-0.342-0.062c-0.135-0.186-0.333-0.339-0.578-0.41
			c-0.293-0.087-0.582-0.055-0.823,0.078c-0.246,0.126-0.435,0.341-0.517,0.619c-0.08,0.269-0.039,0.551,0.099,0.792
			c0.128,0.243,0.352,0.43,0.645,0.517c0.204,0.061,0.414,0.056,0.604,0.012l0.167-0.559l-0.583-0.173
			c-0.127-0.038-0.201-0.175-0.164-0.302c0.04-0.131,0.174-0.197,0.301-0.16l0.803,0.239c0.005,0.001,0.005,0.001,0.005,0.001
			c0.004,0.001,0.004,0.001,0.004,0.001c0.131,0.04,0.207,0.169,0.169,0.299l-0.269,0.902c-0.009,0.028-0.021,0.042-0.032,0.065
			c-0.007,0.008-0.007,0.011-0.015,0.018l-0.002,0.004c-0.022,0.033-0.057,0.058-0.105,0.075c-0.317,0.124-0.673,0.146-1.021,0.042
			C32.93,17.78,32.445,16.93,32.687,16.115z"/>
		<path d="M38.402,17.461l-0.583-0.341l-1.145,1.96c-0.065,0.114-0.205,0.151-0.319,0.084c-0.11-0.063-0.15-0.206-0.084-0.32
			l1.144-1.959l-0.579-0.339c-0.114-0.066-0.147-0.212-0.083-0.323c0.067-0.114,0.206-0.149,0.319-0.085l1.566,0.916
			c0.111,0.064,0.151,0.206,0.085,0.319C38.661,17.483,38.513,17.525,38.402,17.461z"/>
		<path d="M41.228,19.74c-0.003,0.384-0.142,0.771-0.432,1.073c-0.292,0.305-0.672,0.463-1.054,0.481
			c-0.373,0.026-0.766-0.102-1.049-0.372c-0.295-0.284-0.441-0.67-0.439-1.049c0.001-0.382,0.148-0.764,0.439-1.069
			c0.29-0.303,0.663-0.465,1.047-0.485c0.38-0.024,0.772,0.108,1.067,0.39C41.09,18.98,41.24,19.364,41.228,19.74z M40.444,20.479
			c0.201-0.209,0.303-0.481,0.306-0.738c0.002-0.261-0.094-0.506-0.276-0.682c-0.196-0.188-0.446-0.272-0.708-0.257
			c-0.257,0.012-0.522,0.129-0.723,0.336c-0.198,0.21-0.304,0.48-0.301,0.735c-0.003,0.262,0.09,0.509,0.286,0.696
			c0.185,0.176,0.436,0.258,0.697,0.244C39.977,20.801,40.246,20.687,40.444,20.479z"/>
		<path d="M40.616,22.788c-0.109,0.065-0.255,0.03-0.318-0.075c-0.067-0.113-0.03-0.255,0.079-0.321l2.111-1.274
			c0,0,0,0,0.003-0.002c0.06-0.041,0.143-0.052,0.217-0.02c0.115,0.053,0.173,0.187,0.122,0.301l-0.916,2.153l1.497-0.902
			c0.105-0.063,0.248-0.032,0.314,0.078c0.065,0.109,0.028,0.254-0.075,0.318l-2.111,1.274c-0.108,0.067-0.254,0.03-0.32-0.078
			c-0.035-0.058-0.038-0.132-0.018-0.194c0.003-0.012,0.006-0.024,0.012-0.032l0.912-2.136L40.616,22.788z"/>
	</g>
	<g>
		<g>
			<path d="M26.268,45.209l0.487-2.458c0.025-0.128,0.146-0.21,0.275-0.184l0.491,0.098c0.804,0.158,1.326,0.942,1.167,1.742
				c-0.162,0.808-0.941,1.334-1.744,1.174l-0.492-0.098C26.322,45.459,26.243,45.335,26.268,45.209z M26.776,45.068l0.258,0.051
				c0.551,0.104,1.082-0.25,1.191-0.803c0.107-0.547-0.246-1.078-0.796-1.188l-0.259-0.052L26.776,45.068z"/>
			<path d="M29.812,45.344c0.174,0.007,0.311,0.159,0.304,0.333c-0.008,0.174-0.159,0.308-0.333,0.3
				c-0.174-0.009-0.308-0.154-0.3-0.328C29.491,45.474,29.638,45.336,29.812,45.344z"/>
			<path d="M30.6,44.491c-0.091-0.835,0.53-1.594,1.373-1.695c0.369-0.044,0.72,0.04,1.01,0.216
				c0.111,0.071,0.146,0.218,0.082,0.332c-0.073,0.115-0.227,0.149-0.333,0.085c-0.202-0.13-0.443-0.184-0.705-0.153
				c-0.29,0.033-0.547,0.183-0.723,0.392c-0.168,0.216-0.257,0.481-0.224,0.768c0.033,0.287,0.182,0.535,0.392,0.698
				c0.221,0.162,0.503,0.249,0.794,0.216c0.262-0.03,0.48-0.137,0.652-0.31c0.088-0.083,0.247-0.084,0.343,0.008
				c0.088,0.096,0.088,0.251-0.003,0.341c-0.242,0.238-0.565,0.398-0.936,0.442C31.479,45.927,30.701,45.33,30.6,44.491z"/>
			<path d="M34.71,44.684c0.166-0.051,0.346,0.046,0.397,0.213c0.05,0.165-0.048,0.343-0.215,0.392
				c-0.166,0.051-0.341-0.043-0.392-0.21C34.451,44.913,34.542,44.734,34.71,44.684z"/>
		</g>
	</g>
</g>
</svg>
